# Blender v2.72 (sub 0) OBJ File: ''
# www.blender.org
o Text
v -2.913830 0.322161 0.859496
v -3.603738 0.322161 0.859496
v -4.796399 4.219409 0.859496
v -4.113830 4.219409 0.859496
v -3.493647 1.969867 0.859496
v -3.262454 1.133170 0.859496
v -3.258810 1.148282 0.859496
v -3.252770 1.172824 0.859496
v -3.244335 1.206794 0.859496
v -3.233504 1.250194 0.859496
v -3.220278 1.303022 0.859496
v -3.204656 1.365280 0.859496
v -3.186638 1.436967 0.859496
v -3.166226 1.518083 0.859496
v -3.143417 1.608629 0.859496
v -3.118214 1.708603 0.859496
v -3.090614 1.818007 0.859496
v -3.060619 1.936840 0.859496
v -2.440435 4.219409 0.859496
v -1.761537 4.219409 0.859496
v -1.178050 1.958858 0.859496
v -0.983555 1.213904 0.859496
v -0.759702 1.966198 0.859496
v -0.091812 4.219409 0.859496
v 0.550390 4.219409 0.859496
v -0.667959 0.322161 0.859496
v -1.354197 0.322161 0.859496
v -1.974380 2.656106 0.859496
v -2.124839 3.320326 0.859496
v -2.913830 0.322161 -0.140504
v -3.603738 0.322161 -0.140504
v -4.796399 4.219409 -0.140504
v -4.113830 4.219409 -0.140504
v -3.493647 1.969867 -0.140504
v -3.262454 1.133170 -0.140504
v -3.258810 1.148282 -0.140504
v -3.252770 1.172824 -0.140504
v -3.244335 1.206794 -0.140504
v -3.233504 1.250194 -0.140504
v -3.220278 1.303022 -0.140504
v -3.204656 1.365280 -0.140504
v -3.186638 1.436967 -0.140504
v -3.166226 1.518083 -0.140504
v -3.143417 1.608629 -0.140504
v -3.118214 1.708603 -0.140504
v -3.090614 1.818007 -0.140504
v -3.060619 1.936840 -0.140504
v -2.440435 4.219409 -0.140504
v -1.761537 4.219409 -0.140504
v -1.178050 1.958858 -0.140504
v -0.983555 1.213904 -0.140504
v -0.759702 1.966198 -0.140504
v -0.091812 4.219409 -0.140504
v 0.550390 4.219409 -0.140504
v -0.667959 0.322161 -0.140504
v -1.354197 0.322161 -0.140504
v -1.974380 2.656106 -0.140504
v -2.124839 3.320326 -0.140504
v -2.913830 0.322161 -0.140504
v -2.913830 0.322161 0.859496
v -3.603738 0.322161 -0.140504
v -3.603738 0.322161 0.859496
v -4.796399 4.219409 -0.140504
v -4.796399 4.219409 0.859496
v -4.113830 4.219409 -0.140504
v -4.113830 4.219409 0.859496
v -3.493647 1.969867 -0.140504
v -3.493647 1.969867 0.859496
v -3.262454 1.133170 -0.140504
v -3.262454 1.133170 0.859496
v -3.258810 1.148282 -0.140504
v -3.258810 1.148282 0.859496
v -3.252770 1.172824 -0.140504
v -3.252770 1.172824 0.859496
v -3.244335 1.206794 -0.140504
v -3.244335 1.206794 0.859496
v -3.233504 1.250194 -0.140504
v -3.233504 1.250194 0.859496
v -3.220278 1.303022 -0.140504
v -3.220278 1.303022 0.859496
v -3.204656 1.365280 -0.140504
v -3.204656 1.365280 0.859496
v -3.186638 1.436967 -0.140504
v -3.186638 1.436967 0.859496
v -3.166226 1.518083 -0.140504
v -3.166226 1.518083 0.859496
v -3.143417 1.608629 -0.140504
v -3.143417 1.608629 0.859496
v -3.118214 1.708603 -0.140504
v -3.118214 1.708603 0.859496
v -3.090614 1.818007 -0.140504
v -3.090614 1.818007 0.859496
v -3.060619 1.936840 -0.140504
v -3.060619 1.936840 0.859496
v -2.440435 4.219409 -0.140504
v -2.440435 4.219409 0.859496
v -1.761537 4.219409 -0.140504
v -1.761537 4.219409 0.859496
v -1.178050 1.958858 -0.140504
v -1.178050 1.958858 0.859496
v -0.983555 1.213904 -0.140504
v -0.983555 1.213904 0.859496
v -0.759702 1.966198 -0.140504
v -0.759702 1.966198 0.859496
v -0.091812 4.219409 -0.140504
v -0.091812 4.219409 0.859496
v 0.550390 4.219409 -0.140504
v 0.550390 4.219409 0.859496
v -0.667959 0.322161 -0.140504
v -0.667959 0.322161 0.859496
v -1.354197 0.322161 -0.140504
v -1.354197 0.322161 0.859496
v -1.974380 2.656106 -0.140504
v -1.974380 2.656106 0.859496
v -2.124839 3.320326 -0.140504
v -2.124839 3.320326 0.859496
vn 0.000000 -0.000000 1.000000
vn 0.000000 0.000000 -1.000000
vn -0.594700 -0.803900 -0.000000
vn 0.610500 -0.792000 -0.000000
vn -0.803900 0.594700 0.000000
vn 0.605900 0.795500 0.000000
vn 0.964000 0.266100 0.000000
vn -0.016500 0.999900 0.000000
vn -0.971600 0.236700 0.000000
vn -0.970800 0.240000 0.000000
vn -0.970400 0.241600 0.000000
vn -0.970200 0.242500 0.000000
vn -0.970000 0.243100 0.000000
vn -0.969900 0.243600 0.000000
vn -0.969800 0.243900 0.000000
vn -0.969700 0.244200 0.000000
vn -0.969700 0.244400 0.000000
vn -0.969600 0.244500 0.000000
vn -0.969600 0.244700 0.000000
vn -0.967300 0.253500 0.000000
vn -0.607400 0.794400 0.000000
vn 0.612400 0.790500 0.000000
vn 0.967900 0.251300 0.000000
vn 0.016900 0.999900 0.000000
vn -0.958600 0.284700 0.000000
vn -0.598200 0.801300 0.000000
vn 0.805700 0.592300 0.000000
vn 0.592300 -0.805700 -0.000000
vn -0.609600 -0.792700 -0.000000
vn -0.971000 -0.238900 0.000000
vn -0.017300 -0.999900 0.000000
s off
f 2//1 4//1 3//1
f 2//1 5//1 4//1
f 18//1 20//1 19//1
f 18//1 29//1 20//1
f 29//1 21//1 20//1
f 23//1 25//1 24//1
f 23//1 26//1 25//1
f 18//1 1//1 29//1
f 28//1 21//1 29//1
f 27//1 21//1 28//1
f 2//1 6//1 5//1
f 22//1 26//1 23//1
f 27//1 22//1 21//1
f 17//1 1//1 18//1
f 16//1 1//1 17//1
f 15//1 1//1 16//1
f 14//1 1//1 15//1
f 13//1 1//1 14//1
f 12//1 1//1 13//1
f 11//1 1//1 12//1
f 10//1 1//1 11//1
f 9//1 1//1 10//1
f 27//1 26//1 22//1
f 8//1 1//1 9//1
f 7//1 1//1 8//1
f 6//1 1//1 7//1
f 2//1 1//1 6//1
f 33//2 31//2 32//2
f 34//2 31//2 33//2
f 49//2 47//2 48//2
f 58//2 47//2 49//2
f 50//2 58//2 49//2
f 54//2 52//2 53//2
f 55//2 52//2 54//2
f 30//2 47//2 58//2
f 50//2 57//2 58//2
f 50//2 56//2 57//2
f 35//2 31//2 34//2
f 55//2 51//2 52//2
f 51//2 56//2 50//2
f 30//2 46//2 47//2
f 30//2 45//2 46//2
f 30//2 44//2 45//2
f 30//2 43//2 44//2
f 30//2 42//2 43//2
f 30//2 41//2 42//2
f 30//2 40//2 41//2
f 30//2 39//2 40//2
f 30//2 38//2 39//2
f 55//2 56//2 51//2
f 30//2 37//2 38//2
f 30//2 36//2 37//2
f 30//2 35//2 36//2
f 30//2 31//2 35//2
s 1
f 62//3 61//3 59//4
f 64//5 63//5 61//3
f 66//6 65//6 63//5
f 68//7 67//7 65//6
f 70//8 69//8 67//7
f 70//8 72//9 71//9
f 74//10 73//10 71//9
f 76//11 75//11 73//10
f 78//12 77//12 75//11
f 80//13 79//13 77//12
f 82//14 81//14 79//13
f 84//15 83//15 81//14
f 86//16 85//16 83//15
f 88//17 87//17 85//16
f 90//18 89//18 87//17
f 92//19 91//19 89//18
f 94//20 93//20 91//19
f 96//21 95//21 93//20
f 98//22 97//22 95//21
f 98//22 100//23 99//23
f 102//24 101//24 99//23
f 104//25 103//25 101//24
f 106//26 105//26 103//25
f 108//27 107//27 105//26
f 110//28 109//28 107//27
f 112//29 111//29 109//28
f 114//30 113//30 111//29
f 116//31 115//31 113//30
f 60//4 59//4 115//31
f 60//4 62//3 59//4
f 62//3 64//5 61//3
f 64//5 66//6 63//5
f 66//6 68//7 65//6
f 68//7 70//8 67//7
f 69//8 70//8 71//9
f 72//9 74//10 71//9
f 74//10 76//11 73//10
f 76//11 78//12 75//11
f 78//12 80//13 77//12
f 80//13 82//14 79//13
f 82//14 84//15 81//14
f 84//15 86//16 83//15
f 86//16 88//17 85//16
f 88//17 90//18 87//17
f 90//18 92//19 89//18
f 92//19 94//20 91//19
f 94//20 96//21 93//20
f 96//21 98//22 95//21
f 97//22 98//22 99//23
f 100//23 102//24 99//23
f 102//24 104//25 101//24
f 104//25 106//26 103//25
f 106//26 108//27 105//26
f 108//27 110//28 107//27
f 110//28 112//29 109//28
f 112//29 114//30 111//29
f 114//30 116//31 113//30
f 116//31 60//4 115//31
