# Blender v2.72 (sub 0) OBJ File: ''
# www.blender.org
o Text
v -1.728509 0.322161 0.859496
v -2.389059 0.322161 0.859496
v -2.389059 1.610234 0.859496
v -4.723004 1.610234 0.859496
v -4.723004 2.215739 0.859496
v -2.267958 5.701977 0.859497
v -1.728509 5.701977 0.859497
v -1.728509 2.215739 0.859496
v -1.001903 2.215739 0.859496
v -1.001903 1.610234 0.859496
v -1.728509 1.610234 0.859496
v -4.073463 2.215739 0.859496
v -2.389059 2.215739 0.859496
v -2.389059 4.641428 0.859496
v -1.728509 0.322161 -0.140504
v -2.389059 0.322161 -0.140504
v -2.389059 1.610234 -0.140504
v -4.723004 1.610234 -0.140504
v -4.723004 2.215739 -0.140504
v -2.267958 5.701977 -0.140503
v -1.728509 5.701977 -0.140503
v -1.728509 2.215739 -0.140504
v -1.001903 2.215739 -0.140504
v -1.001903 1.610234 -0.140504
v -1.728509 1.610234 -0.140504
v -4.073463 2.215739 -0.140504
v -2.389059 2.215739 -0.140504
v -2.389059 4.641428 -0.140504
v -1.728509 0.322161 -0.140504
v -1.728509 0.322161 0.859496
v -2.389059 0.322161 -0.140504
v -2.389059 0.322161 0.859496
v -2.389059 1.610234 -0.140504
v -2.389059 1.610234 0.859496
v -4.723004 1.610234 -0.140504
v -4.723004 1.610234 0.859496
v -4.723004 2.215739 -0.140504
v -4.723004 2.215739 0.859496
v -2.267958 5.701977 -0.140503
v -2.267958 5.701977 0.859497
v -1.728509 5.701977 -0.140503
v -1.728509 5.701977 0.859497
v -1.728509 2.215739 -0.140504
v -1.728509 2.215739 0.859496
v -1.001903 2.215739 -0.140504
v -1.001903 2.215739 0.859496
v -1.001903 1.610234 -0.140504
v -1.001903 1.610234 0.859496
v -1.728509 1.610234 -0.140504
v -1.728509 1.610234 0.859496
v -4.073463 2.215739 -0.140504
v -4.073463 2.215739 0.859496
v -2.389059 2.215739 -0.140504
v -2.389059 2.215739 0.859496
v -2.389059 4.641428 -0.140504
v -2.389059 4.641428 0.859496
vn 0.000000 -0.000000 1.000000
vn 0.000000 0.000000 -1.000000
vn -0.707100 -0.707100 -0.000000
vn 0.707100 -0.707100 -0.000000
vn -0.953300 0.302000 0.000000
vn -0.460600 0.887600 0.000000
vn 0.707100 0.707100 0.000000
vn -0.707100 0.707100 0.000000
vn 0.886100 0.463500 0.000000
vn -0.298800 -0.954300 0.000000
s off
f 5//1 7//1 6//1
f 5//1 14//1 7//1
f 14//1 8//1 7//1
f 5//1 12//1 14//1
f 13//1 8//1 14//1
f 4//1 12//1 5//1
f 4//1 13//1 12//1
f 4//1 8//1 13//1
f 4//1 9//1 8//1
f 4//1 10//1 9//1
f 3//1 10//1 4//1
f 2//1 11//1 3//1
f 11//1 10//1 3//1
f 2//1 1//1 11//1
f 21//2 19//2 20//2
f 28//2 19//2 21//2
f 22//2 28//2 21//2
f 26//2 19//2 28//2
f 22//2 27//2 28//2
f 26//2 18//2 19//2
f 27//2 18//2 26//2
f 22//2 18//2 27//2
f 23//2 18//2 22//2
f 24//2 18//2 23//2
f 24//1 17//1 18//1
f 25//2 16//2 17//2
f 24//1 25//1 17//1
f 15//2 16//2 25//2
s 1
f 32//3 31//3 29//4
f 34//3 33//3 31//3
f 36//3 35//3 33//3
f 38//5 37//5 35//3
f 40//6 39//6 37//5
f 42//7 41//7 39//6
f 42//7 44//7 43//7
f 46//7 45//7 43//7
f 48//4 47//4 45//7
f 50//4 49//4 47//4
f 50//4 30//4 29//4
f 54//8 53//8 51//9
f 56//10 55//10 53//8
f 52//9 51//9 55//10
f 30//4 32//3 29//4
f 32//3 34//3 31//3
f 34//3 36//3 33//3
f 36//3 38//5 35//3
f 38//5 40//6 37//5
f 40//6 42//7 39//6
f 41//7 42//7 43//7
f 44//7 46//7 43//7
f 46//7 48//4 45//7
f 48//4 50//4 47//4
f 49//4 50//4 29//4
f 52//9 54//8 51//9
f 54//8 56//10 53//8
f 56//10 52//9 55//10
