# Blender v2.72 (sub 0) OBJ File: ''
# www.blender.org
o Text
v -1.827592 4.997390 0.859496
v -4.462454 4.997390 0.859496
v -4.462454 5.632253 0.859497
v -0.979885 5.632253 0.859497
v -0.979885 5.118491 0.859497
v -1.065448 5.024862 0.859496
v -1.150884 4.926239 0.859496
v -1.236192 4.822620 0.859496
v -1.321373 4.714006 0.859496
v -1.406427 4.600398 0.859496
v -1.491353 4.481795 0.859496
v -1.576152 4.358197 0.859496
v -1.660823 4.229603 0.859496
v -1.745367 4.096015 0.859496
v -1.829783 3.957432 0.859496
v -1.914072 3.813854 0.859496
v -1.998234 3.665280 0.859496
v -2.080739 3.513853 0.859496
v -2.160058 3.361713 0.859496
v -2.236192 3.208858 0.859496
v -2.309141 3.055291 0.859496
v -2.378904 2.901009 0.859496
v -2.445481 2.746014 0.859496
v -2.508873 2.590306 0.859496
v -2.569079 2.433884 0.859496
v -2.626100 2.276748 0.859496
v -2.679936 2.118899 0.859496
v -2.730586 1.960336 0.859496
v -2.778050 1.801060 0.859496
v -2.810084 1.687630 0.859496
v -2.840130 1.572416 0.859496
v -2.868188 1.455418 0.859496
v -2.894258 1.336636 0.859496
v -2.918341 1.216070 0.859496
v -2.940435 1.093721 0.859496
v -2.960543 0.969587 0.859496
v -2.978662 0.843670 0.859496
v -2.994793 0.715968 0.859496
v -3.008937 0.586483 0.859496
v -3.021093 0.455214 0.859496
v -3.031261 0.322161 0.859496
v -3.710160 0.322161 0.859496
v -3.706745 0.429806 0.859496
v -3.700171 0.541121 0.859496
v -3.690435 0.656106 0.859496
v -3.677541 0.774760 0.859496
v -3.661485 0.897085 0.859496
v -3.642270 1.023078 0.859496
v -3.619895 1.152742 0.859496
v -3.594360 1.286075 0.859496
v -3.565665 1.423078 0.859496
v -3.533810 1.563751 0.859496
v -3.498794 1.708094 0.859496
v -3.460619 1.856106 0.859496
v -3.419424 2.005507 0.859496
v -3.375349 2.154016 0.859496
v -3.328394 2.301633 0.859496
v -3.278560 2.448359 0.859496
v -3.225846 2.594192 0.859496
v -3.170252 2.739133 0.859496
v -3.111778 2.883183 0.859496
v -3.050425 3.026340 0.859496
v -2.986192 3.168606 0.859496
v -2.919080 3.309979 0.859496
v -2.849087 3.450461 0.859496
v -2.776215 3.590051 0.859496
v -2.701508 3.727373 0.859496
v -2.626011 3.861050 0.859496
v -2.549724 3.991083 0.859496
v -2.472647 4.117472 0.859496
v -2.394780 4.240217 0.859496
v -2.316123 4.359317 0.859496
v -2.236676 4.474773 0.859496
v -2.156440 4.586586 0.859496
v -2.075413 4.694753 0.859496
v -1.993596 4.799276 0.859496
v -1.910989 4.900156 0.859496
v -1.827592 4.997390 -0.140503
v -4.462454 4.997390 -0.140503
v -4.462454 5.632253 -0.140503
v -0.979885 5.632253 -0.140503
v -0.979885 5.118491 -0.140503
v -1.065448 5.024862 -0.140503
v -1.150884 4.926239 -0.140503
v -1.236192 4.822620 -0.140503
v -1.321373 4.714006 -0.140504
v -1.406427 4.600398 -0.140504
v -1.491353 4.481795 -0.140504
v -1.576152 4.358197 -0.140504
v -1.660823 4.229603 -0.140504
v -1.745367 4.096015 -0.140504
v -1.829783 3.957432 -0.140504
v -1.914072 3.813854 -0.140504
v -1.998234 3.665280 -0.140504
v -2.080739 3.513853 -0.140504
v -2.160058 3.361713 -0.140504
v -2.236192 3.208858 -0.140504
v -2.309141 3.055291 -0.140504
v -2.378904 2.901009 -0.140504
v -2.445481 2.746014 -0.140504
v -2.508873 2.590306 -0.140504
v -2.569079 2.433884 -0.140504
v -2.626100 2.276748 -0.140504
v -2.679936 2.118899 -0.140504
v -2.730586 1.960336 -0.140504
v -2.778050 1.801060 -0.140504
v -2.810084 1.687630 -0.140504
v -2.840130 1.572416 -0.140504
v -2.868188 1.455418 -0.140504
v -2.894258 1.336636 -0.140504
v -2.918341 1.216070 -0.140504
v -2.940435 1.093721 -0.140504
v -2.960543 0.969587 -0.140504
v -2.978662 0.843670 -0.140504
v -2.994793 0.715968 -0.140504
v -3.008937 0.586483 -0.140504
v -3.021093 0.455214 -0.140504
v -3.031261 0.322161 -0.140504
v -3.710160 0.322161 -0.140504
v -3.706745 0.429806 -0.140504
v -3.700171 0.541121 -0.140504
v -3.690435 0.656106 -0.140504
v -3.677541 0.774760 -0.140504
v -3.661485 0.897085 -0.140504
v -3.642270 1.023078 -0.140504
v -3.619895 1.152742 -0.140504
v -3.594360 1.286075 -0.140504
v -3.565665 1.423078 -0.140504
v -3.533810 1.563751 -0.140504
v -3.498794 1.708094 -0.140504
v -3.460619 1.856106 -0.140504
v -3.419424 2.005507 -0.140504
v -3.375349 2.154016 -0.140504
v -3.328394 2.301633 -0.140504
v -3.278560 2.448359 -0.140504
v -3.225846 2.594192 -0.140504
v -3.170252 2.739133 -0.140504
v -3.111778 2.883183 -0.140504
v -3.050425 3.026340 -0.140504
v -2.986192 3.168606 -0.140504
v -2.919080 3.309979 -0.140504
v -2.849087 3.450461 -0.140504
v -2.776215 3.590051 -0.140504
v -2.701508 3.727373 -0.140504
v -2.626011 3.861050 -0.140504
v -2.549724 3.991083 -0.140504
v -2.472647 4.117472 -0.140504
v -2.394780 4.240217 -0.140504
v -2.316123 4.359317 -0.140504
v -2.236676 4.474773 -0.140504
v -2.156440 4.586586 -0.140504
v -2.075413 4.694753 -0.140504
v -1.993596 4.799276 -0.140503
v -1.910989 4.900156 -0.140503
v -1.827592 4.997390 -0.140503
v -1.827592 4.997390 0.859496
v -4.462454 4.997390 -0.140503
v -4.462454 4.997390 0.859496
v -4.462454 5.632253 -0.140503
v -4.462454 5.632253 0.859497
v -0.979885 5.632253 -0.140503
v -0.979885 5.632253 0.859497
v -0.979885 5.118491 -0.140503
v -0.979885 5.118491 0.859497
v -1.065448 5.024862 -0.140503
v -1.065448 5.024862 0.859496
v -1.150884 4.926239 -0.140503
v -1.150884 4.926239 0.859496
v -1.236192 4.822620 -0.140503
v -1.236192 4.822620 0.859496
v -1.321373 4.714006 -0.140504
v -1.321373 4.714006 0.859496
v -1.406427 4.600398 -0.140504
v -1.406427 4.600398 0.859496
v -1.491353 4.481795 -0.140504
v -1.491353 4.481795 0.859496
v -1.576152 4.358197 -0.140504
v -1.576152 4.358197 0.859496
v -1.660823 4.229603 -0.140504
v -1.660823 4.229603 0.859496
v -1.745367 4.096015 -0.140504
v -1.745367 4.096015 0.859496
v -1.829783 3.957432 -0.140504
v -1.829783 3.957432 0.859496
v -1.914072 3.813854 -0.140504
v -1.914072 3.813854 0.859496
v -1.998234 3.665280 -0.140504
v -1.998234 3.665280 0.859496
v -2.080739 3.513853 -0.140504
v -2.080739 3.513853 0.859496
v -2.160058 3.361713 -0.140504
v -2.160058 3.361713 0.859496
v -2.236192 3.208858 -0.140504
v -2.236192 3.208858 0.859496
v -2.309141 3.055291 -0.140504
v -2.309141 3.055291 0.859496
v -2.378904 2.901009 -0.140504
v -2.378904 2.901009 0.859496
v -2.445481 2.746014 -0.140504
v -2.445481 2.746014 0.859496
v -2.508873 2.590306 -0.140504
v -2.508873 2.590306 0.859496
v -2.569079 2.433884 -0.140504
v -2.569079 2.433884 0.859496
v -2.626100 2.276748 -0.140504
v -2.626100 2.276748 0.859496
v -2.679936 2.118899 -0.140504
v -2.679936 2.118899 0.859496
v -2.730586 1.960336 -0.140504
v -2.730586 1.960336 0.859496
v -2.778050 1.801060 -0.140504
v -2.778050 1.801060 0.859496
v -2.810084 1.687630 -0.140504
v -2.810084 1.687630 0.859496
v -2.840130 1.572416 -0.140504
v -2.840130 1.572416 0.859496
v -2.868188 1.455418 -0.140504
v -2.868188 1.455418 0.859496
v -2.894258 1.336636 -0.140504
v -2.894258 1.336636 0.859496
v -2.918341 1.216070 -0.140504
v -2.918341 1.216070 0.859496
v -2.940435 1.093721 -0.140504
v -2.940435 1.093721 0.859496
v -2.960543 0.969587 -0.140504
v -2.960543 0.969587 0.859496
v -2.978662 0.843670 -0.140504
v -2.978662 0.843670 0.859496
v -2.994793 0.715968 -0.140504
v -2.994793 0.715968 0.859496
v -3.008937 0.586483 -0.140504
v -3.008937 0.586483 0.859496
v -3.021093 0.455214 -0.140504
v -3.021093 0.455214 0.859496
v -3.031261 0.322161 -0.140504
v -3.031261 0.322161 0.859496
v -3.710160 0.322161 -0.140504
v -3.710160 0.322161 0.859496
v -3.706745 0.429806 -0.140504
v -3.706745 0.429806 0.859496
v -3.700171 0.541121 -0.140504
v -3.700171 0.541121 0.859496
v -3.690435 0.656106 -0.140504
v -3.690435 0.656106 0.859496
v -3.677541 0.774760 -0.140504
v -3.677541 0.774760 0.859496
v -3.661485 0.897085 -0.140504
v -3.661485 0.897085 0.859496
v -3.642270 1.023078 -0.140504
v -3.642270 1.023078 0.859496
v -3.619895 1.152742 -0.140504
v -3.619895 1.152742 0.859496
v -3.594360 1.286075 -0.140504
v -3.594360 1.286075 0.859496
v -3.565665 1.423078 -0.140504
v -3.565665 1.423078 0.859496
v -3.533810 1.563751 -0.140504
v -3.533810 1.563751 0.859496
v -3.498794 1.708094 -0.140504
v -3.498794 1.708094 0.859496
v -3.460619 1.856106 -0.140504
v -3.460619 1.856106 0.859496
v -3.419424 2.005507 -0.140504
v -3.419424 2.005507 0.859496
v -3.375349 2.154016 -0.140504
v -3.375349 2.154016 0.859496
v -3.328394 2.301633 -0.140504
v -3.328394 2.301633 0.859496
v -3.278560 2.448359 -0.140504
v -3.278560 2.448359 0.859496
v -3.225846 2.594192 -0.140504
v -3.225846 2.594192 0.859496
v -3.170252 2.739133 -0.140504
v -3.170252 2.739133 0.859496
v -3.111778 2.883183 -0.140504
v -3.111778 2.883183 0.859496
v -3.050425 3.026340 -0.140504
v -3.050425 3.026340 0.859496
v -2.986192 3.168606 -0.140504
v -2.986192 3.168606 0.859496
v -2.919080 3.309979 -0.140504
v -2.919080 3.309979 0.859496
v -2.849087 3.450461 -0.140504
v -2.849087 3.450461 0.859496
v -2.776215 3.590051 -0.140504
v -2.776215 3.590051 0.859496
v -2.701508 3.727373 -0.140504
v -2.701508 3.727373 0.859496
v -2.626011 3.861050 -0.140504
v -2.626011 3.861050 0.859496
v -2.549724 3.991083 -0.140504
v -2.549724 3.991083 0.859496
v -2.472647 4.117472 -0.140504
v -2.472647 4.117472 0.859496
v -2.394780 4.240217 -0.140504
v -2.394780 4.240217 0.859496
v -2.316123 4.359317 -0.140504
v -2.316123 4.359317 0.859496
v -2.236676 4.474773 -0.140504
v -2.236676 4.474773 0.859496
v -2.156440 4.586586 -0.140504
v -2.156440 4.586586 0.859496
v -2.075413 4.694753 -0.140504
v -2.075413 4.694753 0.859496
v -1.993596 4.799276 -0.140503
v -1.993596 4.799276 0.859496
v -1.910989 4.900156 -0.140503
v -1.910989 4.900156 0.859496
vn 0.000000 -0.000000 1.000000
vn 0.000000 0.000000 -1.000000
vn -0.707100 -0.707100 0.000000
vn -0.908600 -0.417700 0.000000
vn -0.707100 0.707100 0.000000
vn 0.707100 0.707100 0.000000
vn 0.932300 -0.361800 0.000000
vn 0.747100 -0.664700 0.000000
vn 0.764000 -0.645200 0.000000
vn 0.779500 -0.626400 0.000000
vn 0.793700 -0.608200 0.000000
vn 0.806800 -0.590800 0.000000
vn 0.818900 -0.574000 0.000000
vn 0.829900 -0.557900 0.000000
vn 0.840100 -0.542400 0.000000
vn 0.849500 -0.527500 0.000000
vn 0.858200 -0.513300 0.000000
vn 0.866300 -0.499600 0.000000
vn 0.874100 -0.485700 0.000000
vn 0.882500 -0.470400 0.000000
vn 0.891000 -0.454100 0.000000
vn 0.899200 -0.437500 0.000000
vn 0.907300 -0.420600 0.000000
vn 0.915000 -0.403400 0.000000
vn 0.922500 -0.385900 0.000000
vn 0.929800 -0.368200 0.000000
vn 0.936700 -0.350200 0.000000
vn 0.943300 -0.332000 0.000000
vn 0.949600 -0.313600 0.000000
vn 0.955500 -0.295000 0.000000
vn 0.960400 -0.278700 0.000000
vn 0.965000 -0.262100 0.000000
vn 0.970100 -0.242800 0.000000
vn 0.974600 -0.223800 0.000000
vn 0.978700 -0.205100 0.000000
vn 0.982400 -0.186800 0.000000
vn 0.985600 -0.168800 0.000000
vn 0.988500 -0.151200 0.000000
vn 0.991000 -0.133900 0.000000
vn 0.993100 -0.117000 0.000000
vn 0.994900 -0.100400 0.000000
vn 0.996400 -0.084200 -0.000000
vn 0.679600 -0.733600 -0.000000
vn -0.718200 -0.695800 -0.000000
vn -0.999000 0.045300 0.000000
vn -0.997400 0.071700 0.000000
vn -0.995400 0.096200 0.000000
vn -0.992900 0.119100 0.000000
vn -0.990100 0.140500 0.000000
vn -0.987000 0.160400 0.000000
vn -0.983800 0.179100 0.000000
vn -0.980500 0.196600 0.000000
vn -0.977100 0.212900 0.000000
vn -0.973600 0.228300 0.000000
vn -0.970100 0.242800 0.000000
vn -0.966200 0.257800 0.000000
vn -0.961400 0.275200 0.000000
vn -0.955900 0.293800 0.000000
vn -0.950000 0.312400 0.000000
vn -0.943700 0.330800 0.000000
vn -0.937100 0.349000 0.000000
vn -0.930200 0.367100 0.000000
vn -0.922900 0.385000 0.000000
vn -0.915300 0.402700 0.000000
vn -0.907400 0.420200 0.000000
vn -0.899300 0.437400 0.000000
vn -0.890800 0.454400 0.000000
vn -0.882500 0.470300 0.000000
vn -0.874600 0.484800 0.000000
vn -0.866700 0.498900 0.000000
vn -0.858200 0.513400 0.000000
vn -0.849100 0.528200 0.000000
vn -0.839500 0.543400 0.000000
vn -0.829200 0.559000 0.000000
vn -0.818200 0.575000 0.000000
vn -0.806400 0.591300 0.000000
vn -0.793900 0.608000 0.000000
vn -0.780600 0.625000 0.000000
vn -0.766400 0.642300 0.000000
s off
f 2//1 4//1 3//1
f 2//1 5//1 4//1
f 2//1 6//1 5//1
f 2//1 1//1 6//1
f 1//1 7//1 6//1
f 77//1 7//1 1//1
f 77//1 8//1 7//1
f 76//1 8//1 77//1
f 76//1 9//1 8//1
f 75//1 9//1 76//1
f 75//1 10//1 9//1
f 74//1 10//1 75//1
f 74//1 11//1 10//1
f 73//1 11//1 74//1
f 73//1 12//1 11//1
f 72//1 12//1 73//1
f 71//1 12//1 72//1
f 71//1 13//1 12//1
f 70//1 13//1 71//1
f 70//1 14//1 13//1
f 69//1 14//1 70//1
f 69//1 15//1 14//1
f 68//1 15//1 69//1
f 68//1 16//1 15//1
f 67//1 16//1 68//1
f 67//1 17//1 16//1
f 66//1 17//1 67//1
f 66//1 18//1 17//1
f 65//1 18//1 66//1
f 65//1 19//1 18//1
f 64//1 19//1 65//1
f 64//1 20//1 19//1
f 63//1 20//1 64//1
f 63//1 21//1 20//1
f 62//1 21//1 63//1
f 62//1 22//1 21//1
f 61//1 22//1 62//1
f 61//1 23//1 22//1
f 60//1 23//1 61//1
f 60//1 24//1 23//1
f 59//1 24//1 60//1
f 58//1 24//1 59//1
f 58//1 25//1 24//1
f 57//1 25//1 58//1
f 57//1 26//1 25//1
f 56//1 26//1 57//1
f 56//1 27//1 26//1
f 55//1 27//1 56//1
f 55//1 28//1 27//1
f 54//1 28//1 55//1
f 54//1 29//1 28//1
f 53//1 29//1 54//1
f 53//1 30//1 29//1
f 52//1 30//1 53//1
f 52//1 31//1 30//1
f 52//1 32//1 31//1
f 51//1 32//1 52//1
f 51//1 33//1 32//1
f 50//1 33//1 51//1
f 50//1 34//1 33//1
f 49//1 34//1 50//1
f 49//1 35//1 34//1
f 48//1 35//1 49//1
f 48//1 36//1 35//1
f 47//1 36//1 48//1
f 47//1 37//1 36//1
f 46//1 37//1 47//1
f 46//1 38//1 37//1
f 45//1 38//1 46//1
f 45//1 39//1 38//1
f 44//1 39//1 45//1
f 44//1 40//1 39//1
f 43//1 40//1 44//1
f 43//1 41//1 40//1
f 42//1 41//1 43//1
f 81//2 79//2 80//2
f 82//2 79//2 81//2
f 83//2 79//2 82//2
f 78//2 79//2 83//2
f 84//2 78//2 83//2
f 84//2 154//2 78//2
f 85//2 154//2 84//2
f 85//2 153//2 154//2
f 86//2 153//2 85//2
f 86//2 152//2 153//2
f 87//2 152//2 86//2
f 87//2 151//2 152//2
f 88//2 151//2 87//2
f 88//2 150//2 151//2
f 89//2 150//2 88//2
f 89//2 149//2 150//2
f 89//2 148//2 149//2
f 90//2 148//2 89//2
f 90//2 147//2 148//2
f 91//2 147//2 90//2
f 91//2 146//2 147//2
f 92//2 146//2 91//2
f 92//2 145//2 146//2
f 93//2 145//2 92//2
f 93//2 144//2 145//2
f 94//2 144//2 93//2
f 94//2 143//2 144//2
f 95//2 143//2 94//2
f 95//2 142//2 143//2
f 96//2 142//2 95//2
f 96//2 141//2 142//2
f 97//2 141//2 96//2
f 97//2 140//2 141//2
f 98//2 140//2 97//2
f 98//2 139//2 140//2
f 99//2 139//2 98//2
f 99//2 138//2 139//2
f 100//2 138//2 99//2
f 100//2 137//2 138//2
f 101//2 137//2 100//2
f 101//2 136//2 137//2
f 101//2 135//2 136//2
f 102//2 135//2 101//2
f 102//2 134//2 135//2
f 103//2 134//2 102//2
f 103//2 133//2 134//2
f 104//2 133//2 103//2
f 104//2 132//2 133//2
f 105//2 132//2 104//2
f 105//2 131//2 132//2
f 106//2 131//2 105//2
f 106//2 130//2 131//2
f 107//2 130//2 106//2
f 107//2 129//2 130//2
f 108//2 129//2 107//2
f 109//2 129//2 108//2
f 109//2 128//2 129//2
f 110//2 128//2 109//2
f 110//2 127//2 128//2
f 111//2 127//2 110//2
f 111//2 126//2 127//2
f 112//2 126//2 111//2
f 112//2 125//2 126//2
f 113//2 125//2 112//2
f 113//2 124//2 125//2
f 114//2 124//2 113//2
f 114//2 123//2 124//2
f 115//2 123//2 114//2
f 115//2 122//2 123//2
f 116//2 122//2 115//2
f 116//2 121//2 122//2
f 117//2 121//2 116//2
f 117//2 120//2 121//2
f 118//2 120//2 117//2
f 118//2 119//2 120//2
s 1
f 158//3 157//3 155//4
f 160//5 159//5 157//3
f 162//6 161//6 159//5
f 164//7 163//7 161//6
f 164//7 166//8 165//8
f 168//9 167//9 165//8
f 170//10 169//10 167//9
f 172//11 171//11 169//10
f 174//12 173//12 171//11
f 176//13 175//13 173//12
f 178//14 177//14 175//13
f 180//15 179//15 177//14
f 182//16 181//16 179//15
f 184//17 183//17 181//16
f 186//18 185//18 183//17
f 188//19 187//19 185//18
f 190//20 189//20 187//19
f 192//21 191//21 189//20
f 194//22 193//22 191//21
f 196//23 195//23 193//22
f 198//24 197//24 195//23
f 200//25 199//25 197//24
f 202//26 201//26 199//25
f 204//27 203//27 201//26
f 204//27 206//28 205//28
f 208//29 207//29 205//28
f 210//30 209//30 207//29
f 212//31 211//31 209//30
f 214//32 213//32 211//31
f 216//33 215//33 213//32
f 218//34 217//34 215//33
f 220//35 219//35 217//34
f 222//36 221//36 219//35
f 224//37 223//37 221//36
f 224//37 226//38 225//38
f 228//39 227//39 225//38
f 230//40 229//40 227//39
f 232//41 231//41 229//40
f 234//42 233//42 231//41
f 236//43 235//43 233//42
f 238//44 237//44 235//43
f 240//45 239//45 237//44
f 242//46 241//46 239//45
f 244//47 243//47 241//46
f 246//48 245//48 243//47
f 248//49 247//49 245//48
f 250//50 249//50 247//49
f 252//51 251//51 249//50
f 254//52 253//52 251//51
f 256//53 255//53 253//52
f 258//54 257//54 255//53
f 260//55 259//55 257//54
f 262//56 261//56 259//55
f 264//57 263//57 261//56
f 266//58 265//58 263//57
f 268//59 267//59 265//58
f 270//60 269//60 267//59
f 272//61 271//61 269//60
f 274//62 273//62 271//61
f 276//63 275//63 273//62
f 278//64 277//64 275//63
f 280//65 279//65 277//64
f 282//66 281//66 279//65
f 284//67 283//67 281//66
f 286//68 285//68 283//67
f 288//69 287//69 285//68
f 290//70 289//70 287//69
f 292//71 291//71 289//70
f 294//72 293//72 291//71
f 296//73 295//73 293//72
f 298//74 297//74 295//73
f 300//75 299//75 297//74
f 302//76 301//76 299//75
f 304//77 303//77 301//76
f 306//78 305//78 303//77
f 308//79 307//79 305//78
f 156//4 155//4 307//79
f 156//4 158//3 155//4
f 158//3 160//5 157//3
f 160//5 162//6 159//5
f 162//6 164//7 161//6
f 163//7 164//7 165//8
f 166//8 168//9 165//8
f 168//9 170//10 167//9
f 170//10 172//11 169//10
f 172//11 174//12 171//11
f 174//12 176//13 173//12
f 176//13 178//14 175//13
f 178//14 180//15 177//14
f 180//15 182//16 179//15
f 182//16 184//17 181//16
f 184//17 186//18 183//17
f 186//18 188//19 185//18
f 188//19 190//20 187//19
f 190//20 192//21 189//20
f 192//21 194//22 191//21
f 194//22 196//23 193//22
f 196//23 198//24 195//23
f 198//24 200//25 197//24
f 200//25 202//26 199//25
f 202//26 204//27 201//26
f 203//27 204//27 205//28
f 206//28 208//29 205//28
f 208//29 210//30 207//29
f 210//30 212//31 209//30
f 212//31 214//32 211//31
f 214//32 216//33 213//32
f 216//33 218//34 215//33
f 218//34 220//35 217//34
f 220//35 222//36 219//35
f 222//36 224//37 221//36
f 223//37 224//37 225//38
f 226//38 228//39 225//38
f 228//39 230//40 227//39
f 230//40 232//41 229//40
f 232//41 234//42 231//41
f 234//42 236//43 233//42
f 236//43 238//44 235//43
f 238//44 240//45 237//44
f 240//45 242//46 239//45
f 242//46 244//47 241//46
f 244//47 246//48 243//47
f 246//48 248//49 245//48
f 248//49 250//50 247//49
f 250//50 252//51 249//50
f 252//51 254//52 251//51
f 254//52 256//53 253//52
f 256//53 258//54 255//53
f 258//54 260//55 257//54
f 260//55 262//56 259//55
f 262//56 264//57 261//56
f 264//57 266//58 263//57
f 266//58 268//59 265//58
f 268//59 270//60 267//59
f 270//60 272//61 269//60
f 272//61 274//62 271//61
f 274//62 276//63 273//62
f 276//63 278//64 275//63
f 278//64 280//65 277//64
f 280//65 282//66 279//65
f 282//66 284//67 281//66
f 284//67 286//68 283//67
f 286//68 288//69 285//68
f 288//69 290//70 287//69
f 290//70 292//71 289//70
f 292//71 294//72 291//71
f 294//72 296//73 293//72
f 296//73 298//74 295//73
f 298//74 300//75 297//74
f 300//75 302//76 299//75
f 302//76 304//77 301//76
f 304//77 306//78 303//77
f 306//78 308//79 305//78
f 308//79 156//4 307//79
