# Blender v2.72 (sub 0) OBJ File: ''
# www.blender.org
mtllib colon.mtl
o Text
v 1.431193 3.144954 0.500000
v 0.678899 3.144954 0.500000
v 0.678899 3.897248 0.500000
v 1.431193 3.897248 0.500000
v 1.431193 -0.000000 0.500000
v 0.678899 -0.000000 0.500000
v 0.678899 0.752294 0.500000
v 1.431193 0.752294 0.500000
v 1.431193 3.144954 -0.500000
v 0.678899 3.144954 -0.500000
v 0.678899 3.897248 -0.500000
v 1.431193 3.897248 -0.500000
v 1.431193 0.000000 -0.500000
v 0.678899 0.000000 -0.500000
v 0.678899 0.752294 -0.500000
v 1.431193 0.752294 -0.500000
v 1.431193 3.144954 -0.500000
v 1.431193 3.144954 0.500000
v 0.678899 3.144954 -0.500000
v 0.678899 3.144954 0.500000
v 0.678899 3.897248 -0.500000
v 0.678899 3.897248 0.500000
v 1.431193 3.897248 -0.500000
v 1.431193 3.897248 0.500000
v 1.431193 0.000000 -0.500000
v 1.431193 -0.000000 0.500000
v 0.678899 0.000000 -0.500000
v 0.678899 -0.000000 0.500000
v 0.678899 0.752294 -0.500000
v 0.678899 0.752294 0.500000
v 1.431193 0.752294 -0.500000
v 1.431193 0.752294 0.500000
vn 0.000000 -0.000000 1.000000
vn 0.000000 0.000000 -1.000000
vn -0.707100 -0.707100 0.000000
vn 0.707100 -0.707100 0.000000
vn -0.707100 0.707100 0.000000
vn 0.707100 0.707100 0.000000
usemtl None
s off
f 6//1 8//1 7//1
f 6//1 5//1 8//1
f 2//1 4//1 3//1
f 2//1 1//1 4//1
f 16//2 14//2 15//2
f 13//2 14//2 16//2
f 12//2 10//2 11//2
f 9//2 10//2 12//2
s 1
f 20//3 19//3 17//4
f 22//5 21//5 19//3
f 24//6 23//6 21//5
f 18//4 17//4 23//6
f 28//3 27//3 25//4
f 30//5 29//5 27//3
f 32//6 31//6 29//5
f 26//4 25//4 31//6
f 18//4 20//3 17//4
f 20//3 22//5 19//3
f 22//5 24//6 21//5
f 24//6 18//4 23//6
f 26//4 28//3 25//4
f 28//3 30//5 27//3
f 30//5 32//6 29//5
f 32//6 26//4 31//6
