# Blender v2.72 (sub 0) OBJ File: ''
# www.blender.org
mtllib L_SQ_BRAC.mtl
o Text
v 1.966972 -1.493578 0.500000
v 0.510092 -1.493578 0.500000
v 0.510092 5.379816 0.500000
v 1.966972 5.379816 0.500000
v 1.966972 4.833027 0.500000
v 1.170642 4.833027 0.500000
v 1.170642 -0.946789 0.500000
v 1.966972 -0.946789 0.500000
v 1.966972 -1.493578 -0.500000
v 0.510092 -1.493578 -0.500000
v 0.510092 5.379816 -0.500000
v 1.966972 5.379816 -0.500000
v 1.966972 4.833027 -0.500000
v 1.170642 4.833027 -0.500000
v 1.170642 -0.946789 -0.500000
v 1.966972 -0.946789 -0.500000
v 1.966972 -1.493578 -0.500000
v 1.966972 -1.493578 0.500000
v 0.510092 -1.493578 -0.500000
v 0.510092 -1.493578 0.500000
v 0.510092 5.379816 -0.500000
v 0.510092 5.379816 0.500000
v 1.966972 5.379816 -0.500000
v 1.966972 5.379816 0.500000
v 1.966972 4.833027 -0.500000
v 1.966972 4.833027 0.500000
v 1.170642 4.833027 -0.500000
v 1.170642 4.833027 0.500000
v 1.170642 -0.946789 -0.500000
v 1.170642 -0.946789 0.500000
v 1.966972 -0.946789 -0.500000
v 1.966972 -0.946789 0.500000
vn -0.000000 -0.000000 1.000000
vn -0.000000 0.000000 -1.000000
vn -0.707100 -0.707100 0.000000
vn 0.707100 -0.707100 0.000000
vn -0.707100 0.707100 0.000000
vn 0.707100 0.707100 0.000000
usemtl None
s off
f 2//1 6//1 3//1
f 6//1 4//1 3//1
f 6//1 5//1 4//1
f 2//1 7//1 6//1
f 2//1 8//1 7//1
f 2//1 1//1 8//1
f 14//2 10//2 11//2
f 12//2 14//2 11//2
f 13//2 14//2 12//2
f 15//2 10//2 14//2
f 16//2 10//2 15//2
f 9//2 10//2 16//2
s 1
f 20//3 19//3 17//4
f 22//5 21//5 19//3
f 24//6 23//6 21//5
f 26//4 25//4 23//6
f 28//4 27//4 25//4
f 30//6 29//6 27//4
f 32//6 31//6 29//6
f 18//4 17//4 31//6
f 18//4 20//3 17//4
f 20//3 22//5 19//3
f 22//5 24//6 21//5
f 24//6 26//4 23//6
f 26//4 28//4 25//4
f 28//4 30//6 27//4
f 30//6 32//6 29//6
f 32//6 18//4 31//6
