# Blender v2.72 (sub 0) OBJ File: ''
# www.blender.org
mtllib R_SQ_BRAC.mtl
o Text
v 1.600000 5.379816 0.500000
v 1.600000 -1.493578 0.500000
v 0.143119 -1.493578 0.500000
v 0.143119 -0.946789 0.500000
v 0.939450 -0.946789 0.500000
v 0.939450 4.833027 0.500000
v 0.143119 4.833027 0.500000
v 0.143119 5.379816 0.500000
v 1.600000 5.379816 -0.500000
v 1.600000 -1.493578 -0.500000
v 0.143119 -1.493578 -0.500000
v 0.143119 -0.946789 -0.500000
v 0.939450 -0.946789 -0.500000
v 0.939450 4.833027 -0.500000
v 0.143119 4.833027 -0.500000
v 0.143119 5.379816 -0.500000
v 1.600000 5.379816 -0.500000
v 1.600000 5.379816 0.500000
v 1.600000 -1.493578 -0.500000
v 1.600000 -1.493578 0.500000
v 0.143119 -1.493578 -0.500000
v 0.143119 -1.493578 0.500000
v 0.143119 -0.946789 -0.500000
v 0.143119 -0.946789 0.500000
v 0.939450 -0.946789 -0.500000
v 0.939450 -0.946789 0.500000
v 0.939450 4.833027 -0.500000
v 0.939450 4.833027 0.500000
v 0.143119 4.833027 -0.500000
v 0.143119 4.833027 0.500000
v 0.143119 5.379816 -0.500000
v 0.143119 5.379816 0.500000
vn 0.000000 0.000000 1.000000
vn 0.000000 0.000000 -1.000000
vn 0.707100 0.707100 0.000000
vn 0.707100 -0.707100 0.000000
vn -0.707100 -0.707100 0.000000
vn -0.707100 0.707100 0.000000
usemtl None
s off
f 7//1 1//1 8//1
f 7//1 6//1 1//1
f 6//1 2//1 1//1
f 5//1 2//1 6//1
f 3//1 5//1 4//1
f 3//1 2//1 5//1
f 9//2 15//2 16//2
f 14//2 15//2 9//2
f 10//2 14//2 9//2
f 10//2 13//2 14//2
f 13//2 11//2 12//2
f 10//2 11//2 13//2
s 1
f 18//3 20//4 19//4
f 22//5 21//5 19//4
f 24//6 23//6 21//5
f 26//6 25//6 23//6
f 28//5 27//5 25//6
f 30//5 29//5 27//5
f 32//6 31//6 29//5
f 18//3 17//3 31//6
f 17//3 18//3 19//4
f 20//4 22//5 19//4
f 22//5 24//6 21//5
f 24//6 26//6 23//6
f 26//6 28//5 25//6
f 28//5 30//5 27//5
f 30//5 32//6 29//5
f 32//6 18//3 31//6
