# Blender v2.72 (sub 0) OBJ File: ''
# www.blender.org
o Text
v -3.666123 4.935005 0.859496
v -4.326674 4.935005 0.859496
v -4.326674 5.701977 0.859497
v -3.666123 5.701977 0.859497
v -4.645940 -1.259490 0.859496
v -4.690461 -1.259006 0.859496
v -4.734727 -1.257554 0.859496
v -4.778738 -1.255132 0.859496
v -4.822495 -1.251743 0.859496
v -4.865996 -1.247385 0.859496
v -4.909243 -1.242059 0.859496
v -4.952235 -1.235765 0.859496
v -4.994972 -1.228502 0.859496
v -5.037454 -1.220270 0.859496
v -5.079681 -1.211070 0.859496
v -5.121654 -1.200902 0.859496
v -5.163371 -1.189765 0.859496
v -5.038600 -0.628298 0.859496
v -5.006159 -0.636504 0.859496
v -4.974890 -0.643996 0.859496
v -4.944793 -0.650775 0.859496
v -4.915869 -0.656840 0.859496
v -4.888116 -0.662192 0.859496
v -4.861537 -0.666830 0.859496
v -4.836129 -0.670755 0.859496
v -4.811893 -0.673966 0.859496
v -4.788830 -0.676463 0.859496
v -4.766939 -0.678247 0.859496
v -4.746220 -0.679317 0.859496
v -4.726674 -0.679674 0.859496
v -4.693748 -0.678744 0.859496
v -4.662250 -0.675953 0.859496
v -4.632178 -0.671302 0.859496
v -4.603534 -0.664791 0.859496
v -4.576317 -0.656419 0.859496
v -4.550527 -0.646188 0.859496
v -4.526164 -0.634095 0.859496
v -4.503229 -0.620143 0.859496
v -4.481720 -0.604330 0.859496
v -4.461638 -0.586656 0.859496
v -4.442984 -0.567123 0.859496
v -4.425756 -0.545729 0.859496
v -4.409931 -0.520614 0.859496
v -4.395481 -0.489918 0.859496
v -4.382408 -0.453642 0.859496
v -4.370711 -0.411784 0.859496
v -4.360390 -0.364345 0.859496
v -4.351445 -0.311325 0.859496
v -4.343876 -0.252724 0.859496
v -4.337683 -0.188542 0.859496
v -4.332867 -0.118779 0.859496
v -4.329426 -0.043435 0.859496
v -4.327362 0.037490 0.859496
v -4.326674 0.123996 0.859496
v -4.326674 4.219409 0.859496
v -3.666123 4.219409 0.859496
v -3.666123 0.109317 0.859496
v -3.667423 -0.007528 0.859496
v -3.671322 -0.118308 0.859496
v -3.677821 -0.223022 0.859496
v -3.686919 -0.321672 0.859496
v -3.698616 -0.414256 0.859496
v -3.712913 -0.500775 0.859496
v -3.729809 -0.581228 0.859496
v -3.749304 -0.655617 0.859496
v -3.771399 -0.723940 0.859496
v -3.796093 -0.786198 0.859496
v -3.823387 -0.842390 0.859496
v -3.853280 -0.892518 0.859496
v -3.895226 -0.951132 0.859496
v -3.941557 -1.004648 0.859496
v -3.992270 -1.053068 0.859496
v -4.047367 -1.096391 0.859496
v -4.106847 -1.134618 0.859496
v -4.170711 -1.167747 0.859496
v -4.238957 -1.195780 0.859496
v -4.311587 -1.218716 0.859496
v -4.388600 -1.236555 0.859496
v -4.469997 -1.249297 0.859496
v -4.555777 -1.256942 0.859496
v -3.666123 4.935005 -0.140503
v -4.326674 4.935005 -0.140503
v -4.326674 5.701977 -0.140503
v -3.666123 5.701977 -0.140503
v -4.645940 -1.259490 -0.140504
v -4.690461 -1.259006 -0.140504
v -4.734727 -1.257554 -0.140504
v -4.778738 -1.255132 -0.140504
v -4.822495 -1.251743 -0.140504
v -4.865996 -1.247385 -0.140504
v -4.909243 -1.242059 -0.140504
v -4.952235 -1.235765 -0.140504
v -4.994972 -1.228502 -0.140504
v -5.037454 -1.220270 -0.140504
v -5.079681 -1.211070 -0.140504
v -5.121654 -1.200902 -0.140504
v -5.163371 -1.189765 -0.140504
v -5.038600 -0.628298 -0.140504
v -5.006159 -0.636504 -0.140504
v -4.974890 -0.643996 -0.140504
v -4.944793 -0.650775 -0.140504
v -4.915869 -0.656840 -0.140504
v -4.888116 -0.662192 -0.140504
v -4.861537 -0.666830 -0.140504
v -4.836129 -0.670755 -0.140504
v -4.811893 -0.673966 -0.140504
v -4.788830 -0.676463 -0.140504
v -4.766939 -0.678247 -0.140504
v -4.746220 -0.679317 -0.140504
v -4.726674 -0.679674 -0.140504
v -4.693748 -0.678744 -0.140504
v -4.662250 -0.675953 -0.140504
v -4.632178 -0.671302 -0.140504
v -4.603534 -0.664791 -0.140504
v -4.576317 -0.656419 -0.140504
v -4.550527 -0.646188 -0.140504
v -4.526164 -0.634095 -0.140504
v -4.503229 -0.620143 -0.140504
v -4.481720 -0.604330 -0.140504
v -4.461638 -0.586656 -0.140504
v -4.442984 -0.567123 -0.140504
v -4.425756 -0.545729 -0.140504
v -4.409931 -0.520614 -0.140504
v -4.395481 -0.489918 -0.140504
v -4.382408 -0.453642 -0.140504
v -4.370711 -0.411784 -0.140504
v -4.360390 -0.364345 -0.140504
v -4.351445 -0.311325 -0.140504
v -4.343876 -0.252724 -0.140504
v -4.337683 -0.188542 -0.140504
v -4.332867 -0.118779 -0.140504
v -4.329426 -0.043435 -0.140504
v -4.327362 0.037490 -0.140504
v -4.326674 0.123996 -0.140504
v -4.326674 4.219409 -0.140504
v -3.666123 4.219409 -0.140504
v -3.666123 0.109317 -0.140504
v -3.667423 -0.007528 -0.140504
v -3.671322 -0.118308 -0.140504
v -3.677821 -0.223022 -0.140504
v -3.686919 -0.321672 -0.140504
v -3.698616 -0.414256 -0.140504
v -3.712913 -0.500775 -0.140504
v -3.729809 -0.581228 -0.140504
v -3.749304 -0.655617 -0.140504
v -3.771399 -0.723940 -0.140504
v -3.796093 -0.786198 -0.140504
v -3.823387 -0.842390 -0.140504
v -3.853280 -0.892518 -0.140504
v -3.895226 -0.951132 -0.140504
v -3.941557 -1.004648 -0.140504
v -3.992270 -1.053068 -0.140504
v -4.047367 -1.096391 -0.140504
v -4.106847 -1.134618 -0.140504
v -4.170711 -1.167747 -0.140504
v -4.238957 -1.195780 -0.140504
v -4.311587 -1.218716 -0.140504
v -4.388600 -1.236555 -0.140504
v -4.469997 -1.249297 -0.140504
v -4.555777 -1.256942 -0.140504
v -3.666123 4.935005 -0.140503
v -3.666123 4.935005 0.859496
v -4.326674 4.935005 -0.140503
v -4.326674 4.935005 0.859496
v -4.326674 5.701977 -0.140503
v -4.326674 5.701977 0.859497
v -3.666123 5.701977 -0.140503
v -3.666123 5.701977 0.859497
v -4.645940 -1.259490 -0.140504
v -4.645940 -1.259490 0.859496
v -4.690461 -1.259006 -0.140504
v -4.690461 -1.259006 0.859496
v -4.734727 -1.257554 -0.140504
v -4.734727 -1.257554 0.859496
v -4.778738 -1.255132 -0.140504
v -4.778738 -1.255132 0.859496
v -4.822495 -1.251743 -0.140504
v -4.822495 -1.251743 0.859496
v -4.865996 -1.247385 -0.140504
v -4.865996 -1.247385 0.859496
v -4.909243 -1.242059 -0.140504
v -4.909243 -1.242059 0.859496
v -4.952235 -1.235765 -0.140504
v -4.952235 -1.235765 0.859496
v -4.994972 -1.228502 -0.140504
v -4.994972 -1.228502 0.859496
v -5.037454 -1.220270 -0.140504
v -5.037454 -1.220270 0.859496
v -5.079681 -1.211070 -0.140504
v -5.079681 -1.211070 0.859496
v -5.121654 -1.200902 -0.140504
v -5.121654 -1.200902 0.859496
v -5.163371 -1.189765 -0.140504
v -5.163371 -1.189765 0.859496
v -5.038600 -0.628298 -0.140504
v -5.038600 -0.628298 0.859496
v -5.006159 -0.636504 -0.140504
v -5.006159 -0.636504 0.859496
v -4.974890 -0.643996 -0.140504
v -4.974890 -0.643996 0.859496
v -4.944793 -0.650775 -0.140504
v -4.944793 -0.650775 0.859496
v -4.915869 -0.656840 -0.140504
v -4.915869 -0.656840 0.859496
v -4.888116 -0.662192 -0.140504
v -4.888116 -0.662192 0.859496
v -4.861537 -0.666830 -0.140504
v -4.861537 -0.666830 0.859496
v -4.836129 -0.670755 -0.140504
v -4.836129 -0.670755 0.859496
v -4.811893 -0.673966 -0.140504
v -4.811893 -0.673966 0.859496
v -4.788830 -0.676463 -0.140504
v -4.788830 -0.676463 0.859496
v -4.766939 -0.678247 -0.140504
v -4.766939 -0.678247 0.859496
v -4.746220 -0.679317 -0.140504
v -4.746220 -0.679317 0.859496
v -4.726674 -0.679674 -0.140504
v -4.726674 -0.679674 0.859496
v -4.693748 -0.678744 -0.140504
v -4.693748 -0.678744 0.859496
v -4.662250 -0.675953 -0.140504
v -4.662250 -0.675953 0.859496
v -4.632178 -0.671302 -0.140504
v -4.632178 -0.671302 0.859496
v -4.603534 -0.664791 -0.140504
v -4.603534 -0.664791 0.859496
v -4.576317 -0.656419 -0.140504
v -4.576317 -0.656419 0.859496
v -4.550527 -0.646188 -0.140504
v -4.550527 -0.646188 0.859496
v -4.526164 -0.634095 -0.140504
v -4.526164 -0.634095 0.859496
v -4.503229 -0.620143 -0.140504
v -4.503229 -0.620143 0.859496
v -4.481720 -0.604330 -0.140504
v -4.481720 -0.604330 0.859496
v -4.461638 -0.586656 -0.140504
v -4.461638 -0.586656 0.859496
v -4.442984 -0.567123 -0.140504
v -4.442984 -0.567123 0.859496
v -4.425756 -0.545729 -0.140504
v -4.425756 -0.545729 0.859496
v -4.409931 -0.520614 -0.140504
v -4.409931 -0.520614 0.859496
v -4.395481 -0.489918 -0.140504
v -4.395481 -0.489918 0.859496
v -4.382408 -0.453642 -0.140504
v -4.382408 -0.453642 0.859496
v -4.370711 -0.411784 -0.140504
v -4.370711 -0.411784 0.859496
v -4.360390 -0.364345 -0.140504
v -4.360390 -0.364345 0.859496
v -4.351445 -0.311325 -0.140504
v -4.351445 -0.311325 0.859496
v -4.343876 -0.252724 -0.140504
v -4.343876 -0.252724 0.859496
v -4.337683 -0.188542 -0.140504
v -4.337683 -0.188542 0.859496
v -4.332867 -0.118779 -0.140504
v -4.332867 -0.118779 0.859496
v -4.329426 -0.043435 -0.140504
v -4.329426 -0.043435 0.859496
v -4.327362 0.037490 -0.140504
v -4.327362 0.037490 0.859496
v -4.326674 0.123996 -0.140504
v -4.326674 0.123996 0.859496
v -4.326674 4.219409 -0.140504
v -4.326674 4.219409 0.859496
v -3.666123 4.219409 -0.140504
v -3.666123 4.219409 0.859496
v -3.666123 0.109317 -0.140504
v -3.666123 0.109317 0.859496
v -3.667423 -0.007528 -0.140504
v -3.667423 -0.007528 0.859496
v -3.671322 -0.118308 -0.140504
v -3.671322 -0.118308 0.859496
v -3.677821 -0.223022 -0.140504
v -3.677821 -0.223022 0.859496
v -3.686919 -0.321672 -0.140504
v -3.686919 -0.321672 0.859496
v -3.698616 -0.414256 -0.140504
v -3.698616 -0.414256 0.859496
v -3.712913 -0.500775 -0.140504
v -3.712913 -0.500775 0.859496
v -3.729809 -0.581228 -0.140504
v -3.729809 -0.581228 0.859496
v -3.749304 -0.655617 -0.140504
v -3.749304 -0.655617 0.859496
v -3.771399 -0.723940 -0.140504
v -3.771399 -0.723940 0.859496
v -3.796093 -0.786198 -0.140504
v -3.796093 -0.786198 0.859496
v -3.823387 -0.842390 -0.140504
v -3.823387 -0.842390 0.859496
v -3.853280 -0.892518 -0.140504
v -3.853280 -0.892518 0.859496
v -3.895226 -0.951132 -0.140504
v -3.895226 -0.951132 0.859496
v -3.941557 -1.004648 -0.140504
v -3.941557 -1.004648 0.859496
v -3.992270 -1.053068 -0.140504
v -3.992270 -1.053068 0.859496
v -4.047367 -1.096391 -0.140504
v -4.047367 -1.096391 0.859496
v -4.106847 -1.134618 -0.140504
v -4.106847 -1.134618 0.859496
v -4.170711 -1.167747 -0.140504
v -4.170711 -1.167747 0.859496
v -4.238957 -1.195780 -0.140504
v -4.238957 -1.195780 0.859496
v -4.311587 -1.218716 -0.140504
v -4.311587 -1.218716 0.859496
v -4.388600 -1.236555 -0.140504
v -4.388600 -1.236555 0.859496
v -4.469997 -1.249297 -0.140504
v -4.469997 -1.249297 0.859496
v -4.555777 -1.256942 -0.140504
v -4.555777 -1.256942 0.859496
vn 0.000000 -0.000000 1.000000
vn 0.000000 0.000000 -1.000000
vn -0.707100 -0.707100 0.000000
vn 0.707100 -0.707100 0.000000
vn -0.707100 0.707100 0.000000
vn 0.707100 0.707100 0.000000
vn -0.021800 -0.999800 0.000000
vn 0.008700 -1.000000 0.000000
vn -0.043900 -0.999000 0.000000
vn -0.066100 -0.997800 0.000000
vn -0.088500 -0.996100 0.000000
vn -0.111000 -0.993800 0.000000
vn -0.133600 -0.991000 0.000000
vn -0.156200 -0.987700 0.000000
vn -0.178900 -0.983900 0.000000
vn -0.201600 -0.979500 0.000000
vn -0.224200 -0.974500 0.000000
vn -0.246700 -0.969100 0.000000
vn -0.854800 -0.519000 0.000000
vn -0.524600 0.851400 0.000000
vn 0.239100 0.971000 0.000000
vn 0.226400 0.974000 0.000000
vn 0.212500 0.977200 0.000000
vn 0.197300 0.980300 0.000000
vn 0.180600 0.983600 0.000000
vn 0.162300 0.986700 0.000000
vn 0.142000 0.989900 0.000000
vn 0.119500 0.992800 0.000000
vn 0.094500 0.995500 0.000000
vn 0.094400 0.995500 0.000000
vn 0.066400 0.997800 0.000000
vn 0.034900 0.999400 0.000000
vn -0.005000 1.000000 0.000000
vn -0.058300 0.998300 0.000000
vn -0.120600 0.992700 0.000000
vn -0.187400 0.982300 0.000000
vn -0.258000 0.966100 0.000000
vn -0.331600 0.943400 0.000000
vn -0.407000 0.913400 0.000000
vn -0.482600 0.875800 0.000000
vn -0.556600 0.830800 0.000000
vn -0.627100 0.778900 0.000000
vn -0.692600 0.721300 0.000000
vn -0.751700 0.659500 0.000000
vn -0.813800 0.581100 0.000000
vn -0.877000 0.480400 0.000000
vn -0.923800 0.382900 0.000000
vn -0.952600 0.304300 0.000000
vn -0.970500 0.241000 0.000000
vn -0.981900 0.189500 0.000000
vn -0.989100 0.147300 0.000000
vn -0.993700 0.112100 0.000000
vn -0.996600 0.082500 0.000000
vn -0.998400 0.057300 0.000000
vn -0.998400 0.057200 0.000000
vn -0.999400 0.035600 0.000000
vn -0.999900 0.016700 0.000000
vn -1.000000 0.004000 0.000000
vn 1.000000 -0.005600 -0.000000
vn 0.999700 -0.023200 -0.000000
vn 0.998800 -0.048600 -0.000000
vn 0.997000 -0.076900 -0.000000
vn 0.994100 -0.108600 0.000000
vn 0.989500 -0.144200 0.000000
vn 0.982900 -0.184300 0.000000
vn 0.973300 -0.229600 0.000000
vn 0.959800 -0.280700 0.000000
vn 0.941000 -0.338400 0.000000
vn 0.915200 -0.403100 0.000000
vn 0.880000 -0.475000 0.000000
vn 0.836800 -0.547600 0.000000
vn 0.785500 -0.618900 0.000000
vn 0.724100 -0.689700 0.000000
vn 0.655100 -0.755600 0.000000
vn 0.580000 -0.814600 0.000000
vn 0.501100 -0.865400 0.000000
vn 0.420600 -0.907200 0.000000
vn 0.340800 -0.940100 0.000000
vn 0.263600 -0.964600 0.000000
vn 0.190300 -0.981700 0.000000
vn 0.121800 -0.992600 0.000000
vn 0.058500 -0.998300 0.000000
s off
f 54//1 56//1 55//1
f 54//1 57//1 56//1
f 53//1 57//1 54//1
f 53//1 58//1 57//1
f 52//1 58//1 53//1
f 52//1 59//1 58//1
f 51//1 59//1 52//1
f 51//1 60//1 59//1
f 50//1 60//1 51//1
f 49//1 60//1 50//1
f 49//1 61//1 60//1
f 48//1 61//1 49//1
f 47//1 61//1 48//1
f 47//1 62//1 61//1
f 46//1 62//1 47//1
f 45//1 62//1 46//1
f 45//1 63//1 62//1
f 44//1 63//1 45//1
f 43//1 63//1 44//1
f 43//1 64//1 63//1
f 42//1 64//1 43//1
f 41//1 64//1 42//1
f 40//1 64//1 41//1
f 40//1 65//1 64//1
f 39//1 65//1 40//1
f 38//1 65//1 39//1
f 37//1 65//1 38//1
f 17//1 19//1 18//1
f 36//1 65//1 37//1
f 17//1 20//1 19//1
f 17//1 21//1 20//1
f 35//1 65//1 36//1
f 17//1 22//1 21//1
f 35//1 66//1 65//1
f 34//1 66//1 35//1
f 17//1 23//1 22//1
f 17//1 24//1 23//1
f 33//1 66//1 34//1
f 17//1 25//1 24//1
f 17//1 26//1 25//1
f 32//1 66//1 33//1
f 17//1 27//1 26//1
f 31//1 66//1 32//1
f 17//1 28//1 27//1
f 17//1 29//1 28//1
f 30//1 66//1 31//1
f 17//1 30//1 29//1
f 17//1 66//1 30//1
f 17//1 67//1 66//1
f 17//1 68//1 67//1
f 17//1 69//1 68//1
f 17//1 70//1 69//1
f 17//1 71//1 70//1
f 17//1 72//1 71//1
f 17//1 73//1 72//1
f 17//1 74//1 73//1
f 17//1 75//1 74//1
f 17//1 76//1 75//1
f 16//1 76//1 17//1
f 16//1 77//1 76//1
f 15//1 77//1 16//1
f 14//1 77//1 15//1
f 14//1 78//1 77//1
f 13//1 78//1 14//1
f 12//1 78//1 13//1
f 11//1 78//1 12//1
f 11//1 79//1 78//1
f 10//1 79//1 11//1
f 9//1 79//1 10//1
f 9//1 80//1 79//1
f 8//1 80//1 9//1
f 7//1 80//1 8//1
f 7//1 5//1 80//1
f 6//1 5//1 7//1
f 2//1 4//1 3//1
f 2//1 1//1 4//1
f 136//2 134//2 135//2
f 137//2 134//2 136//2
f 137//2 133//2 134//2
f 138//2 133//2 137//2
f 138//2 132//2 133//2
f 139//2 132//2 138//2
f 139//2 131//2 132//2
f 140//2 131//2 139//2
f 140//2 130//2 131//2
f 140//2 129//2 130//2
f 141//2 129//2 140//2
f 141//2 128//2 129//2
f 141//2 127//2 128//2
f 142//2 127//2 141//2
f 142//2 126//2 127//2
f 142//2 125//2 126//2
f 143//2 125//2 142//2
f 143//2 124//2 125//2
f 143//2 123//2 124//2
f 144//2 123//2 143//2
f 144//2 122//2 123//2
f 144//2 121//2 122//2
f 144//2 120//2 121//2
f 145//2 120//2 144//2
f 145//2 119//2 120//2
f 145//2 118//2 119//2
f 145//2 117//2 118//2
f 99//2 97//2 98//2
f 145//2 116//2 117//2
f 100//2 97//2 99//2
f 101//2 97//2 100//2
f 145//2 115//2 116//2
f 102//2 97//2 101//2
f 146//2 115//2 145//2
f 146//2 114//2 115//2
f 103//2 97//2 102//2
f 104//2 97//2 103//2
f 146//2 113//2 114//2
f 105//2 97//2 104//2
f 106//2 97//2 105//2
f 146//2 112//2 113//2
f 107//2 97//2 106//2
f 146//2 111//2 112//2
f 108//2 97//2 107//2
f 109//2 97//2 108//2
f 146//2 110//2 111//2
f 110//2 97//2 109//2
f 146//2 97//2 110//2
f 147//2 97//2 146//2
f 148//2 97//2 147//2
f 149//2 97//2 148//2
f 150//2 97//2 149//2
f 151//2 97//2 150//2
f 152//2 97//2 151//2
f 153//2 97//2 152//2
f 154//2 97//2 153//2
f 155//2 97//2 154//2
f 156//2 97//2 155//2
f 156//2 96//2 97//2
f 157//2 96//2 156//2
f 157//2 95//2 96//2
f 157//2 94//2 95//2
f 158//2 94//2 157//2
f 158//2 93//2 94//2
f 158//2 92//2 93//2
f 158//2 91//2 92//2
f 159//2 91//2 158//2
f 159//2 90//2 91//2
f 159//2 89//2 90//2
f 160//2 89//2 159//2
f 160//2 88//2 89//2
f 160//2 87//2 88//2
f 85//2 87//2 160//2
f 85//2 86//2 87//2
f 84//2 82//2 83//2
f 81//2 82//2 84//2
s 1
f 164//3 163//3 161//4
f 166//5 165//5 163//3
f 168//6 167//6 165//5
f 168//6 162//4 161//4
f 172//7 171//7 169//8
f 174//9 173//9 171//7
f 176//10 175//10 173//9
f 178//11 177//11 175//10
f 180//12 179//12 177//11
f 182//13 181//13 179//12
f 184//14 183//14 181//13
f 186//15 185//15 183//14
f 188//16 187//16 185//15
f 190//17 189//17 187//16
f 192//18 191//18 189//17
f 194//19 193//19 191//18
f 196//20 195//20 193//19
f 198//21 197//21 195//20
f 200//22 199//22 197//21
f 202//23 201//23 199//22
f 204//24 203//24 201//23
f 206//25 205//25 203//24
f 208//26 207//26 205//25
f 210//27 209//27 207//26
f 212//28 211//28 209//27
f 214//29 213//30 211//28
f 216//31 215//31 213//30
f 218//32 217//32 215//31
f 220//33 219//33 217//32
f 222//34 221//34 219//33
f 224//35 223//35 221//34
f 226//36 225//36 223//35
f 228//37 227//37 225//36
f 230//38 229//38 227//37
f 232//39 231//39 229//38
f 234//40 233//40 231//39
f 236//41 235//41 233//40
f 238//42 237//42 235//41
f 240//43 239//43 237//42
f 242//44 241//44 239//43
f 244//45 243//45 241//44
f 246//46 245//46 243//45
f 248//47 247//47 245//46
f 250//48 249//48 247//47
f 252//49 251//49 249//48
f 254//50 253//50 251//49
f 256//51 255//51 253//50
f 258//52 257//52 255//51
f 260//53 259//53 257//52
f 262//54 261//55 259//53
f 264//56 263//56 261//55
f 266//57 265//57 263//56
f 266//57 268//58 267//58
f 270//5 269//5 267//58
f 272//6 271//6 269//5
f 274//59 273//59 271//6
f 276//60 275//60 273//59
f 278//61 277//61 275//60
f 280//62 279//62 277//61
f 282//63 281//63 279//62
f 284//64 283//64 281//63
f 286//65 285//65 283//64
f 288//66 287//66 285//65
f 290//67 289//67 287//66
f 292//68 291//68 289//67
f 294//69 293//69 291//68
f 296//70 295//70 293//69
f 298//71 297//71 295//70
f 300//72 299//72 297//71
f 302//73 301//73 299//72
f 304//74 303//74 301//73
f 306//75 305//75 303//74
f 308//76 307//76 305//75
f 310//77 309//77 307//76
f 312//78 311//78 309//77
f 314//79 313//79 311//78
f 316//80 315//80 313//79
f 318//81 317//81 315//80
f 320//82 319//82 317//81
f 170//8 169//8 319//82
f 162//4 164//3 161//4
f 164//3 166//5 163//3
f 166//5 168//6 165//5
f 167//6 168//6 161//4
f 170//8 172//7 169//8
f 172//7 174//9 171//7
f 174//9 176//10 173//9
f 176//10 178//11 175//10
f 178//11 180//12 177//11
f 180//12 182//13 179//12
f 182//13 184//14 181//13
f 184//14 186//15 183//14
f 186//15 188//16 185//15
f 188//16 190//17 187//16
f 190//17 192//18 189//17
f 192//18 194//19 191//18
f 194//19 196//20 193//19
f 196//20 198//21 195//20
f 198//21 200//22 197//21
f 200//22 202//23 199//22
f 202//23 204//24 201//23
f 204//24 206//25 203//24
f 206//25 208//26 205//25
f 208//26 210//27 207//26
f 210//27 212//28 209//27
f 212//28 214//29 211//28
f 214//29 216//31 213//30
f 216//31 218//32 215//31
f 218//32 220//33 217//32
f 220//33 222//34 219//33
f 222//34 224//35 221//34
f 224//35 226//36 223//35
f 226//36 228//37 225//36
f 228//37 230//38 227//37
f 230//38 232//39 229//38
f 232//39 234//40 231//39
f 234//40 236//41 233//40
f 236//41 238//42 235//41
f 238//42 240//43 237//42
f 240//43 242//44 239//43
f 242//44 244//45 241//44
f 244//45 246//46 243//45
f 246//46 248//47 245//46
f 248//47 250//48 247//47
f 250//48 252//49 249//48
f 252//49 254//50 251//49
f 254//50 256//51 253//50
f 256//51 258//52 255//51
f 258//52 260//53 257//52
f 260//53 262//54 259//53
f 262//54 264//56 261//55
f 264//56 266//57 263//56
f 265//57 266//57 267//58
f 268//58 270//5 267//58
f 270//5 272//6 269//5
f 272//6 274//59 271//6
f 274//59 276//60 273//59
f 276//60 278//61 275//60
f 278//61 280//62 277//61
f 280//62 282//63 279//62
f 282//63 284//64 281//63
f 284//64 286//65 283//64
f 286//65 288//66 285//65
f 288//66 290//67 287//66
f 290//67 292//68 289//67
f 292//68 294//69 291//68
f 294//69 296//70 293//69
f 296//70 298//71 295//70
f 298//71 300//72 297//71
f 300//72 302//73 299//72
f 302//73 304//74 301//73
f 304//74 306//75 303//74
f 306//75 308//76 305//75
f 308//76 310//77 307//76
f 310//77 312//78 309//77
f 312//78 314//79 311//78
f 314//79 316//80 313//79
f 316//80 318//81 315//80
f 318//81 320//82 317//81
f 320//82 170//8 319//82
