# Blender v2.72 (sub 0) OBJ File: ''
# www.blender.org
o Text
v -3.669793 0.322161 0.859496
v -4.330344 0.322161 0.859496
v -4.330344 4.219409 0.859496
v -3.735848 4.219409 0.859496
v -3.735848 3.628583 0.859496
v -3.698170 3.695734 0.859496
v -3.660976 3.758960 0.859496
v -3.624266 3.818262 0.859496
v -3.588040 3.873639 0.859496
v -3.552298 3.925092 0.859496
v -3.517041 3.972620 0.859496
v -3.482268 4.016223 0.859496
v -3.447979 4.055902 0.859496
v -3.414174 4.091656 0.859496
v -3.380853 4.123486 0.859496
v -3.348017 4.151392 0.859496
v -3.315665 4.175372 0.859496
v -3.283287 4.196473 0.859496
v -3.250374 4.215739 0.859496
v -3.216926 4.233171 0.859496
v -3.182943 4.248767 0.859496
v -3.148425 4.262528 0.859496
v -3.113371 4.274455 0.859496
v -3.077782 4.284547 0.859496
v -3.041658 4.292804 0.859496
v -3.005000 4.299226 0.859496
v -2.967805 4.303813 0.859496
v -2.930076 4.306565 0.859496
v -2.891812 4.307482 0.859496
v -2.836078 4.306004 0.859496
v -2.780191 4.301570 0.859496
v -2.724151 4.294179 0.859496
v -2.667958 4.283833 0.859496
v -2.611613 4.270530 0.859496
v -2.555115 4.254271 0.859496
v -2.498463 4.235056 0.859496
v -2.441659 4.212885 0.859496
v -2.384702 4.187757 0.859496
v -2.327592 4.159674 0.859496
v -2.270329 4.128634 0.859496
v -2.212913 4.094638 0.859496
v -2.440435 3.481794 0.859496
v -2.480802 3.504653 0.859496
v -2.521169 3.525525 0.859496
v -2.561536 3.544409 0.859496
v -2.601903 3.561305 0.859496
v -2.642270 3.576213 0.859496
v -2.682637 3.589133 0.859496
v -2.723004 3.600066 0.859496
v -2.763371 3.609011 0.859496
v -2.803737 3.615968 0.859496
v -2.844104 3.620938 0.859496
v -2.884471 3.623919 0.859496
v -2.924839 3.624913 0.859496
v -2.960619 3.624008 0.859496
v -2.995787 3.621294 0.859496
v -3.030344 3.616771 0.859496
v -3.064289 3.610438 0.859496
v -3.097622 3.602295 0.859496
v -3.130344 3.592344 0.859496
v -3.162454 3.580583 0.859496
v -3.193952 3.567013 0.859496
v -3.224839 3.551633 0.859496
v -3.255114 3.534444 0.859496
v -3.284778 3.515445 0.859496
v -3.313830 3.494638 0.859496
v -3.341888 3.472224 0.859496
v -3.368570 3.448410 0.859496
v -3.393876 3.423193 0.859496
v -3.417805 3.396575 0.859496
v -3.440359 3.368555 0.859496
v -3.461536 3.339133 0.859496
v -3.481338 3.308310 0.859496
v -3.499763 3.276085 0.859496
v -3.516812 3.242459 0.859496
v -3.532485 3.207431 0.859496
v -3.546781 3.171001 0.859496
v -3.559701 3.133170 0.859496
v -3.577286 3.073996 0.859496
v -3.593341 3.013904 0.859496
v -3.607867 2.952895 0.859496
v -3.620863 2.890968 0.859496
v -3.632331 2.828124 0.859496
v -3.642270 2.764363 0.859496
v -3.650680 2.699684 0.859496
v -3.657561 2.634087 0.859496
v -3.662912 2.567574 0.859496
v -3.666735 2.500142 0.859496
v -3.669029 2.431794 0.859496
v -3.669793 2.362528 0.859496
v -3.669793 0.322161 -0.140504
v -4.330344 0.322161 -0.140504
v -4.330344 4.219409 -0.140504
v -3.735848 4.219409 -0.140504
v -3.735848 3.628583 -0.140504
v -3.698170 3.695734 -0.140504
v -3.660976 3.758960 -0.140504
v -3.624266 3.818262 -0.140504
v -3.588040 3.873639 -0.140504
v -3.552298 3.925092 -0.140504
v -3.517041 3.972620 -0.140504
v -3.482268 4.016223 -0.140504
v -3.447979 4.055902 -0.140504
v -3.414174 4.091656 -0.140504
v -3.380853 4.123486 -0.140504
v -3.348017 4.151392 -0.140504
v -3.315665 4.175372 -0.140504
v -3.283287 4.196473 -0.140504
v -3.250374 4.215739 -0.140504
v -3.216926 4.233171 -0.140504
v -3.182943 4.248767 -0.140504
v -3.148425 4.262528 -0.140504
v -3.113371 4.274455 -0.140504
v -3.077782 4.284547 -0.140504
v -3.041658 4.292804 -0.140504
v -3.005000 4.299226 -0.140504
v -2.967805 4.303813 -0.140504
v -2.930076 4.306565 -0.140504
v -2.891812 4.307482 -0.140504
v -2.836078 4.306004 -0.140504
v -2.780191 4.301570 -0.140504
v -2.724151 4.294179 -0.140504
v -2.667958 4.283833 -0.140504
v -2.611613 4.270530 -0.140504
v -2.555115 4.254271 -0.140504
v -2.498463 4.235056 -0.140504
v -2.441659 4.212885 -0.140504
v -2.384702 4.187757 -0.140504
v -2.327592 4.159674 -0.140504
v -2.270329 4.128634 -0.140504
v -2.212913 4.094638 -0.140504
v -2.440435 3.481794 -0.140504
v -2.480802 3.504653 -0.140504
v -2.521169 3.525525 -0.140504
v -2.561536 3.544409 -0.140504
v -2.601903 3.561305 -0.140504
v -2.642270 3.576213 -0.140504
v -2.682637 3.589133 -0.140504
v -2.723004 3.600066 -0.140504
v -2.763371 3.609011 -0.140504
v -2.803737 3.615968 -0.140504
v -2.844104 3.620938 -0.140504
v -2.884471 3.623919 -0.140504
v -2.924839 3.624913 -0.140504
v -2.960619 3.624008 -0.140504
v -2.995787 3.621294 -0.140504
v -3.030344 3.616771 -0.140504
v -3.064289 3.610438 -0.140504
v -3.097622 3.602295 -0.140504
v -3.130344 3.592344 -0.140504
v -3.162454 3.580583 -0.140504
v -3.193952 3.567013 -0.140504
v -3.224839 3.551633 -0.140504
v -3.255114 3.534444 -0.140504
v -3.284778 3.515445 -0.140504
v -3.313830 3.494638 -0.140504
v -3.341888 3.472224 -0.140504
v -3.368570 3.448410 -0.140504
v -3.393876 3.423193 -0.140504
v -3.417805 3.396575 -0.140504
v -3.440359 3.368555 -0.140504
v -3.461536 3.339133 -0.140504
v -3.481338 3.308310 -0.140504
v -3.499763 3.276085 -0.140504
v -3.516812 3.242459 -0.140504
v -3.532485 3.207431 -0.140504
v -3.546781 3.171001 -0.140504
v -3.559701 3.133170 -0.140504
v -3.577286 3.073996 -0.140504
v -3.593341 3.013904 -0.140504
v -3.607867 2.952895 -0.140504
v -3.620863 2.890968 -0.140504
v -3.632331 2.828124 -0.140504
v -3.642270 2.764363 -0.140504
v -3.650680 2.699684 -0.140504
v -3.657561 2.634087 -0.140504
v -3.662912 2.567574 -0.140504
v -3.666735 2.500142 -0.140504
v -3.669029 2.431794 -0.140504
v -3.669793 2.362528 -0.140504
v -3.669793 0.322161 -0.140504
v -3.669793 0.322161 0.859496
v -4.330344 0.322161 -0.140504
v -4.330344 0.322161 0.859496
v -4.330344 4.219409 -0.140504
v -4.330344 4.219409 0.859496
v -3.735848 4.219409 -0.140504
v -3.735848 4.219409 0.859496
v -3.735848 3.628583 -0.140504
v -3.735848 3.628583 0.859496
v -3.698170 3.695734 -0.140504
v -3.698170 3.695734 0.859496
v -3.660976 3.758960 -0.140504
v -3.660976 3.758960 0.859496
v -3.624266 3.818262 -0.140504
v -3.624266 3.818262 0.859496
v -3.588040 3.873639 -0.140504
v -3.588040 3.873639 0.859496
v -3.552298 3.925092 -0.140504
v -3.552298 3.925092 0.859496
v -3.517041 3.972620 -0.140504
v -3.517041 3.972620 0.859496
v -3.482268 4.016223 -0.140504
v -3.482268 4.016223 0.859496
v -3.447979 4.055902 -0.140504
v -3.447979 4.055902 0.859496
v -3.414174 4.091656 -0.140504
v -3.414174 4.091656 0.859496
v -3.380853 4.123486 -0.140504
v -3.380853 4.123486 0.859496
v -3.348017 4.151392 -0.140504
v -3.348017 4.151392 0.859496
v -3.315665 4.175372 -0.140504
v -3.315665 4.175372 0.859496
v -3.283287 4.196473 -0.140504
v -3.283287 4.196473 0.859496
v -3.250374 4.215739 -0.140504
v -3.250374 4.215739 0.859496
v -3.216926 4.233171 -0.140504
v -3.216926 4.233171 0.859496
v -3.182943 4.248767 -0.140504
v -3.182943 4.248767 0.859496
v -3.148425 4.262528 -0.140504
v -3.148425 4.262528 0.859496
v -3.113371 4.274455 -0.140504
v -3.113371 4.274455 0.859496
v -3.077782 4.284547 -0.140504
v -3.077782 4.284547 0.859496
v -3.041658 4.292804 -0.140504
v -3.041658 4.292804 0.859496
v -3.005000 4.299226 -0.140504
v -3.005000 4.299226 0.859496
v -2.967805 4.303813 -0.140504
v -2.967805 4.303813 0.859496
v -2.930076 4.306565 -0.140504
v -2.930076 4.306565 0.859496
v -2.891812 4.307482 -0.140504
v -2.891812 4.307482 0.859496
v -2.836078 4.306004 -0.140504
v -2.836078 4.306004 0.859496
v -2.780191 4.301570 -0.140504
v -2.780191 4.301570 0.859496
v -2.724151 4.294179 -0.140504
v -2.724151 4.294179 0.859496
v -2.667958 4.283833 -0.140504
v -2.667958 4.283833 0.859496
v -2.611613 4.270530 -0.140504
v -2.611613 4.270530 0.859496
v -2.555115 4.254271 -0.140504
v -2.555115 4.254271 0.859496
v -2.498463 4.235056 -0.140504
v -2.498463 4.235056 0.859496
v -2.441659 4.212885 -0.140504
v -2.441659 4.212885 0.859496
v -2.384702 4.187757 -0.140504
v -2.384702 4.187757 0.859496
v -2.327592 4.159674 -0.140504
v -2.327592 4.159674 0.859496
v -2.270329 4.128634 -0.140504
v -2.270329 4.128634 0.859496
v -2.212913 4.094638 -0.140504
v -2.212913 4.094638 0.859496
v -2.440435 3.481794 -0.140504
v -2.440435 3.481794 0.859496
v -2.480802 3.504653 -0.140504
v -2.480802 3.504653 0.859496
v -2.521169 3.525525 -0.140504
v -2.521169 3.525525 0.859496
v -2.561536 3.544409 -0.140504
v -2.561536 3.544409 0.859496
v -2.601903 3.561305 -0.140504
v -2.601903 3.561305 0.859496
v -2.642270 3.576213 -0.140504
v -2.642270 3.576213 0.859496
v -2.682637 3.589133 -0.140504
v -2.682637 3.589133 0.859496
v -2.723004 3.600066 -0.140504
v -2.723004 3.600066 0.859496
v -2.763371 3.609011 -0.140504
v -2.763371 3.609011 0.859496
v -2.803737 3.615968 -0.140504
v -2.803737 3.615968 0.859496
v -2.844104 3.620938 -0.140504
v -2.844104 3.620938 0.859496
v -2.884471 3.623919 -0.140504
v -2.884471 3.623919 0.859496
v -2.924839 3.624913 -0.140504
v -2.924839 3.624913 0.859496
v -2.960619 3.624008 -0.140504
v -2.960619 3.624008 0.859496
v -2.995787 3.621294 -0.140504
v -2.995787 3.621294 0.859496
v -3.030344 3.616771 -0.140504
v -3.030344 3.616771 0.859496
v -3.064289 3.610438 -0.140504
v -3.064289 3.610438 0.859496
v -3.097622 3.602295 -0.140504
v -3.097622 3.602295 0.859496
v -3.130344 3.592344 -0.140504
v -3.130344 3.592344 0.859496
v -3.162454 3.580583 -0.140504
v -3.162454 3.580583 0.859496
v -3.193952 3.567013 -0.140504
v -3.193952 3.567013 0.859496
v -3.224839 3.551633 -0.140504
v -3.224839 3.551633 0.859496
v -3.255114 3.534444 -0.140504
v -3.255114 3.534444 0.859496
v -3.284778 3.515445 -0.140504
v -3.284778 3.515445 0.859496
v -3.313830 3.494638 -0.140504
v -3.313830 3.494638 0.859496
v -3.341888 3.472224 -0.140504
v -3.341888 3.472224 0.859496
v -3.368570 3.448410 -0.140504
v -3.368570 3.448410 0.859496
v -3.393876 3.423193 -0.140504
v -3.393876 3.423193 0.859496
v -3.417805 3.396575 -0.140504
v -3.417805 3.396575 0.859496
v -3.440359 3.368555 -0.140504
v -3.440359 3.368555 0.859496
v -3.461536 3.339133 -0.140504
v -3.461536 3.339133 0.859496
v -3.481338 3.308310 -0.140504
v -3.481338 3.308310 0.859496
v -3.499763 3.276085 -0.140504
v -3.499763 3.276085 0.859496
v -3.516812 3.242459 -0.140504
v -3.516812 3.242459 0.859496
v -3.532485 3.207431 -0.140504
v -3.532485 3.207431 0.859496
v -3.546781 3.171001 -0.140504
v -3.546781 3.171001 0.859496
v -3.559701 3.133170 -0.140504
v -3.559701 3.133170 0.859496
v -3.577286 3.073996 -0.140504
v -3.577286 3.073996 0.859496
v -3.593341 3.013904 -0.140504
v -3.593341 3.013904 0.859496
v -3.607867 2.952895 -0.140504
v -3.607867 2.952895 0.859496
v -3.620863 2.890968 -0.140504
v -3.620863 2.890968 0.859496
v -3.632331 2.828124 -0.140504
v -3.632331 2.828124 0.859496
v -3.642270 2.764363 -0.140504
v -3.642270 2.764363 0.859496
v -3.650680 2.699684 -0.140504
v -3.650680 2.699684 0.859496
v -3.657561 2.634087 -0.140504
v -3.657561 2.634087 0.859496
v -3.662912 2.567574 -0.140504
v -3.662912 2.567574 0.859496
v -3.666735 2.500142 -0.140504
v -3.666735 2.500142 0.859496
v -3.669029 2.431794 -0.140504
v -3.669029 2.431794 0.859496
v -3.669793 2.362528 -0.140504
v -3.669793 2.362528 0.859496
vn 0.000000 0.000000 1.000000
vn -0.000100 -0.000000 1.000000
vn 0.000000 0.000000 -1.000000
vn -0.000100 -0.000000 -1.000000
vn -0.707100 -0.707100 -0.000000
vn 0.707100 -0.707100 -0.000000
vn -0.707100 0.707100 0.000000
vn 0.707100 0.707100 0.000000
vn 0.252900 0.967500 0.000000
vn -0.867100 0.498200 0.000000
vn -0.856100 0.516700 0.000000
vn -0.843600 0.536900 0.000000
vn -0.829100 0.559000 0.000000
vn -0.829200 0.559000 0.000000
vn -0.812300 0.583200 0.000000
vn -0.792600 0.609700 0.000000
vn -0.769400 0.638800 0.000000
vn -0.741800 0.670600 0.000000
vn -0.708900 0.705300 0.000000
vn -0.669400 0.742900 0.000000
vn -0.621900 0.783100 0.000000
vn -0.571000 0.820900 0.000000
vn -0.571000 0.821000 0.000000
vn -0.525700 0.850600 0.000000
vn -0.483800 0.875200 0.000000
vn -0.439800 0.898100 0.000000
vn -0.393800 0.919200 0.000000
vn -0.346300 0.938100 0.000000
vn -0.297600 0.954700 0.000000
vn -0.247900 0.968800 0.000000
vn -0.197800 0.980300 0.000000
vn -0.147500 0.989100 0.000000
vn -0.097600 0.995200 0.000000
vn -0.048400 0.998800 0.000000
vn 0.001300 1.000000 0.000000
vn 0.052800 0.998600 0.000000
vn 0.105000 0.994500 0.000000
vn 0.156000 0.987800 0.000000
vn 0.205500 0.978700 0.000000
vn 0.253200 0.967400 0.000000
vn 0.299000 0.954300 0.000000
vn 0.342500 0.939500 0.000000
vn 0.383700 0.923500 0.000000
vn 0.422500 0.906300 0.000000
vn 0.459000 0.888400 0.000000
vn 0.493100 0.870000 0.000000
vn 0.942600 0.333800 0.000000
vn 0.342900 -0.939400 0.000000
vn -0.476100 -0.879400 0.000000
vn -0.441600 -0.897200 0.000000
vn -0.405000 -0.914300 0.000000
vn -0.366400 -0.930500 0.000000
vn -0.325700 -0.945500 0.000000
vn -0.283200 -0.959100 0.000000
vn -0.238900 -0.971000 0.000000
vn -0.193200 -0.981200 0.000000
vn -0.193100 -0.981200 0.000000
vn -0.146100 -0.989300 0.000000
vn -0.098000 -0.995200 0.000000
vn -0.049200 -0.998800 0.000000
vn 0.000300 -1.000000 0.000000
vn 0.051100 -0.998700 0.000000
vn 0.103400 -0.994600 0.000000
vn 0.156700 -0.987700 0.000000
vn 0.210400 -0.977600 0.000000
vn 0.264200 -0.964500 0.000000
vn 0.317600 -0.948200 0.000000
vn 0.369900 -0.929100 0.000000
vn 0.420900 -0.907100 0.000000
vn 0.469900 -0.882700 0.000000
vn 0.516700 -0.856200 0.000000
vn 0.561000 -0.827800 0.000000
vn 0.603400 -0.797400 0.000000
vn 0.645300 -0.764000 0.000000
vn 0.686100 -0.727500 0.000000
vn 0.725000 -0.688700 0.000000
vn 0.761600 -0.648000 0.000000
vn 0.795600 -0.605800 0.000000
vn 0.826800 -0.562500 0.000000
vn 0.855000 -0.518600 0.000000
vn 0.880300 -0.474400 0.000000
vn 0.902600 -0.430400 0.000000
vn 0.922100 -0.387000 0.000000
vn 0.938800 -0.344300 0.000000
vn 0.952600 -0.304100 0.000000
vn 0.962400 -0.271500 0.000000
vn 0.969500 -0.244900 0.000000
vn 0.975800 -0.218500 0.000000
vn 0.981300 -0.192500 0.000000
vn 0.986000 -0.166800 0.000000
vn 0.989900 -0.141500 0.000000
vn 0.993200 -0.116600 0.000000
vn 0.995700 -0.092300 0.000000
vn 0.997700 -0.068400 0.000000
vn 0.999000 -0.045100 0.000000
vn 0.999800 -0.022300 0.000000
vn 1.000000 -0.005500 0.000000
s off
f 28//1 30//1 29//1
f 27//1 30//1 28//1
f 27//1 31//1 30//1
f 26//1 31//1 27//1
f 26//1 32//1 31//1
f 25//1 32//1 26//1
f 25//1 33//1 32//1
f 24//1 33//1 25//1
f 23//1 33//1 24//1
f 23//1 34//1 33//1
f 22//1 34//1 23//1
f 22//1 35//1 34//1
f 21//1 35//1 22//1
f 21//1 36//1 35//1
f 20//1 36//1 21//1
f 20//1 37//1 36//1
f 19//1 37//1 20//1
f 2//1 4//1 3//1
f 2//1 5//1 4//1
f 18//1 37//1 19//1
f 18//1 38//1 37//1
f 17//1 38//1 18//1
f 17//1 39//1 38//1
f 16//1 39//1 17//1
f 16//1 40//1 39//1
f 15//1 40//1 16//1
f 15//1 41//1 40//1
f 14//1 41//1 15//1
f 14//1 42//1 41//1
f 13//1 42//1 14//1
f 12//1 44//1 13//1
f 44//1 43//1 13//1
f 43//1 42//1 13//1
f 11//1 45//1 12//1
f 45//1 44//1 12//1
f 10//1 46//1 11//1
f 46//2 45//2 11//2
f 9//1 48//1 10//1
f 48//1 47//1 10//1
f 47//2 46//2 10//2
f 8//1 49//1 9//1
f 49//1 48//1 9//1
f 7//1 51//1 8//1
f 51//1 50//1 8//1
f 50//1 49//1 8//1
f 6//1 52//1 7//1
f 52//1 51//1 7//1
f 5//1 54//1 6//1
f 54//1 53//1 6//1
f 53//1 52//1 6//1
f 2//1 79//1 5//1
f 79//1 78//1 5//1
f 78//1 77//1 5//1
f 77//1 76//1 5//1
f 76//1 75//1 5//1
f 75//1 74//1 5//1
f 74//1 73//1 5//1
f 73//1 72//1 5//1
f 72//1 71//1 5//1
f 71//1 70//1 5//1
f 70//1 69//1 5//1
f 69//1 68//1 5//1
f 68//1 67//1 5//1
f 67//1 66//1 5//1
f 66//1 65//1 5//1
f 65//1 64//1 5//1
f 64//1 63//1 5//1
f 63//1 62//1 5//1
f 62//1 61//1 5//1
f 61//1 60//1 5//1
f 60//1 59//1 5//1
f 59//1 58//1 5//1
f 58//1 57//1 5//1
f 57//1 56//1 5//1
f 56//1 55//1 5//1
f 55//1 54//1 5//1
f 2//1 80//1 79//1
f 2//1 81//1 80//1
f 2//1 82//1 81//1
f 2//1 83//1 82//1
f 2//1 84//1 83//1
f 2//1 85//1 84//1
f 2//1 86//1 85//1
f 2//1 87//1 86//1
f 2//1 88//1 87//1
f 2//1 89//1 88//1
f 2//1 90//1 89//1
f 2//1 1//1 90//1
f 120//3 118//3 119//3
f 120//3 117//3 118//3
f 121//3 117//3 120//3
f 121//3 116//3 117//3
f 122//3 116//3 121//3
f 122//3 115//3 116//3
f 123//3 115//3 122//3
f 123//3 114//3 115//3
f 123//3 113//3 114//3
f 124//3 113//3 123//3
f 124//3 112//3 113//3
f 125//3 112//3 124//3
f 125//3 111//3 112//3
f 126//3 111//3 125//3
f 126//3 110//3 111//3
f 127//3 110//3 126//3
f 127//3 109//3 110//3
f 94//3 92//3 93//3
f 95//3 92//3 94//3
f 127//3 108//3 109//3
f 128//3 108//3 127//3
f 128//3 107//3 108//3
f 129//3 107//3 128//3
f 129//3 106//3 107//3
f 130//3 106//3 129//3
f 130//3 105//3 106//3
f 131//3 105//3 130//3
f 131//3 104//3 105//3
f 132//3 104//3 131//3
f 132//3 103//3 104//3
f 134//3 102//3 103//3
f 133//3 134//3 103//3
f 132//3 133//3 103//3
f 135//3 101//3 102//3
f 134//3 135//3 102//3
f 136//3 100//3 101//3
f 135//3 136//3 101//3
f 138//3 99//3 100//3
f 137//3 138//3 100//3
f 136//3 137//3 100//3
f 139//3 98//3 99//3
f 138//3 139//3 99//3
f 141//3 97//3 98//3
f 140//3 141//3 98//3
f 139//3 140//3 98//3
f 142//3 96//3 97//3
f 141//3 142//3 97//3
f 144//3 95//3 96//3
f 143//3 144//3 96//3
f 142//3 143//3 96//3
f 169//3 92//3 95//3
f 168//3 169//3 95//3
f 167//3 168//3 95//3
f 166//3 167//3 95//3
f 165//3 166//3 95//3
f 164//3 165//3 95//3
f 163//3 164//3 95//3
f 162//3 163//3 95//3
f 161//3 162//3 95//3
f 160//3 161//3 95//3
f 159//3 160//3 95//3
f 158//3 159//3 95//3
f 157//3 158//3 95//3
f 156//3 157//3 95//3
f 155//3 156//3 95//3
f 154//3 155//3 95//3
f 153//3 154//3 95//3
f 152//3 153//3 95//3
f 151//3 152//3 95//3
f 150//3 151//3 95//3
f 149//3 150//3 95//3
f 148//3 149//3 95//3
f 147//3 148//3 95//3
f 146//3 147//3 95//3
f 145//3 146//3 95//3
f 144//3 145//3 95//3
f 170//4 92//4 169//4
f 171//3 92//3 170//3
f 172//3 92//3 171//3
f 173//3 92//3 172//3
f 174//3 92//3 173//3
f 175//3 92//3 174//3
f 176//3 92//3 175//3
f 177//3 92//3 176//3
f 178//3 92//3 177//3
f 179//3 92//3 178//3
f 180//3 92//3 179//3
f 91//3 92//3 180//3
s 1
f 184//5 183//5 181//6
f 186//7 185//7 183//5
f 188//8 187//8 185//7
f 188//8 190//9 189//9
f 192//10 191//10 189//9
f 194//11 193//11 191//10
f 196//12 195//12 193//11
f 198//13 197//14 195//12
f 200//15 199//15 197//14
f 202//16 201//16 199//15
f 204//17 203//17 201//16
f 206//18 205//18 203//17
f 208//19 207//19 205//18
f 210//20 209//20 207//19
f 212//21 211//21 209//20
f 214//22 213//23 211//21
f 216//24 215//24 213//23
f 218//25 217//25 215//24
f 220//26 219//26 217//25
f 222//27 221//27 219//26
f 224//28 223//28 221//27
f 226//29 225//29 223//28
f 228//30 227//30 225//29
f 230//31 229//31 227//30
f 232//32 231//32 229//31
f 234//33 233//33 231//32
f 236//34 235//34 233//33
f 238//35 237//35 235//34
f 240//36 239//36 237//35
f 242//37 241//37 239//36
f 244//38 243//38 241//37
f 246//39 245//39 243//38
f 248//40 247//40 245//39
f 250//41 249//41 247//40
f 252//42 251//42 249//41
f 254//43 253//43 251//42
f 256//44 255//44 253//43
f 258//45 257//45 255//44
f 260//46 259//46 257//45
f 262//47 261//47 259//46
f 262//47 264//48 263//48
f 266//49 265//49 263//48
f 268//50 267//50 265//49
f 270//51 269//51 267//50
f 272//52 271//52 269//51
f 274//53 273//53 271//52
f 276//54 275//54 273//53
f 278//55 277//55 275//54
f 280//56 279//57 277//55
f 282//58 281//58 279//57
f 284//59 283//59 281//58
f 286//60 285//60 283//59
f 288//61 287//61 285//60
f 290//62 289//62 287//61
f 292//63 291//63 289//62
f 294//64 293//64 291//63
f 296//65 295//65 293//64
f 298//66 297//66 295//65
f 300//67 299//67 297//66
f 302//68 301//68 299//67
f 304//69 303//69 301//68
f 306//70 305//70 303//69
f 308//71 307//71 305//70
f 310//72 309//72 307//71
f 312//73 311//73 309//72
f 314//74 313//74 311//73
f 316//75 315//75 313//74
f 318//76 317//76 315//75
f 320//77 319//77 317//76
f 322//78 321//78 319//77
f 324//79 323//79 321//78
f 326//80 325//80 323//79
f 328//81 327//81 325//80
f 330//82 329//82 327//81
f 332//83 331//83 329//82
f 334//84 333//84 331//83
f 336//85 335//85 333//84
f 338//86 337//86 335//85
f 340//87 339//87 337//86
f 342//88 341//88 339//87
f 344//89 343//89 341//88
f 346//90 345//90 343//89
f 348//91 347//91 345//90
f 350//92 349//92 347//91
f 352//93 351//93 349//92
f 354//94 353//94 351//93
f 356//95 355//95 353//94
f 358//96 357//96 355//95
f 358//96 360//97 359//97
f 360//97 182//6 181//6
f 182//6 184//5 181//6
f 184//5 186//7 183//5
f 186//7 188//8 185//7
f 187//8 188//8 189//9
f 190//9 192//10 189//9
f 192//10 194//11 191//10
f 194//11 196//12 193//11
f 196//12 198//13 195//12
f 198//13 200//15 197//14
f 200//15 202//16 199//15
f 202//16 204//17 201//16
f 204//17 206//18 203//17
f 206//18 208//19 205//18
f 208//19 210//20 207//19
f 210//20 212//21 209//20
f 212//21 214//22 211//21
f 214//22 216//24 213//23
f 216//24 218//25 215//24
f 218//25 220//26 217//25
f 220//26 222//27 219//26
f 222//27 224//28 221//27
f 224//28 226//29 223//28
f 226//29 228//30 225//29
f 228//30 230//31 227//30
f 230//31 232//32 229//31
f 232//32 234//33 231//32
f 234//33 236//34 233//33
f 236//34 238//35 235//34
f 238//35 240//36 237//35
f 240//36 242//37 239//36
f 242//37 244//38 241//37
f 244//38 246//39 243//38
f 246//39 248//40 245//39
f 248//40 250//41 247//40
f 250//41 252//42 249//41
f 252//42 254//43 251//42
f 254//43 256//44 253//43
f 256//44 258//45 255//44
f 258//45 260//46 257//45
f 260//46 262//47 259//46
f 261//47 262//47 263//48
f 264//48 266//49 263//48
f 266//49 268//50 265//49
f 268//50 270//51 267//50
f 270//51 272//52 269//51
f 272//52 274//53 271//52
f 274//53 276//54 273//53
f 276//54 278//55 275//54
f 278//55 280//56 277//55
f 280//56 282//58 279//57
f 282//58 284//59 281//58
f 284//59 286//60 283//59
f 286//60 288//61 285//60
f 288//61 290//62 287//61
f 290//62 292//63 289//62
f 292//63 294//64 291//63
f 294//64 296//65 293//64
f 296//65 298//66 295//65
f 298//66 300//67 297//66
f 300//67 302//68 299//67
f 302//68 304//69 301//68
f 304//69 306//70 303//69
f 306//70 308//71 305//70
f 308//71 310//72 307//71
f 310//72 312//73 309//72
f 312//73 314//74 311//73
f 314//74 316//75 313//74
f 316//75 318//76 315//75
f 318//76 320//77 317//76
f 320//77 322//78 319//77
f 322//78 324//79 321//78
f 324//79 326//80 323//79
f 326//80 328//81 325//80
f 328//81 330//82 327//81
f 330//82 332//83 329//82
f 332//83 334//84 331//83
f 334//84 336//85 333//84
f 336//85 338//86 335//85
f 338//86 340//87 337//86
f 340//87 342//88 339//87
f 342//88 344//89 341//88
f 344//89 346//90 343//89
f 346//90 348//91 345//90
f 348//91 350//92 347//91
f 350//92 352//93 349//92
f 352//93 354//94 351//93
f 354//94 356//95 353//94
f 356//95 358//96 355//95
f 357//96 358//96 359//97
f 359//97 360//97 181//6
