# Blender v2.72 (sub 0) OBJ File: ''
# www.blender.org
o Text
v -1.222087 0.322161 0.859496
v -4.671628 0.322161 0.859496
v -4.671628 0.857941 0.859496
v -2.190894 3.705647 0.859496
v -2.260542 3.702130 0.859496
v -2.328815 3.698919 0.859496
v -2.395710 3.696014 0.859496
v -2.461230 3.693415 0.859496
v -2.525374 3.691121 0.859496
v -2.588141 3.689133 0.859496
v -2.649533 3.687451 0.859496
v -2.709548 3.686075 0.859496
v -2.768187 3.685005 0.859496
v -2.825450 3.684240 0.859496
v -2.881337 3.683782 0.859496
v -2.935848 3.683629 0.859496
v -4.524839 3.683629 0.859496
v -4.524839 4.219409 0.859496
v -1.339518 4.219409 0.859496
v -1.339518 3.782711 0.859496
v -3.449610 1.309317 0.859496
v -3.856949 0.857941 0.859496
v -3.783325 0.863216 0.859496
v -3.710466 0.868033 0.859496
v -3.638371 0.872390 0.859496
v -3.567041 0.876290 0.859496
v -3.496475 0.879730 0.859496
v -3.426674 0.882712 0.859496
v -3.357637 0.885235 0.859496
v -3.289365 0.887299 0.859496
v -3.221858 0.888904 0.859496
v -3.155114 0.890051 0.859496
v -3.089136 0.890739 0.859496
v -3.023921 0.890968 0.859496
v -1.222087 0.890968 0.859496
v -1.222087 0.322161 -0.140504
v -4.671628 0.322161 -0.140504
v -4.671628 0.857941 -0.140504
v -2.190894 3.705647 -0.140504
v -2.260542 3.702130 -0.140504
v -2.328815 3.698919 -0.140504
v -2.395710 3.696014 -0.140504
v -2.461230 3.693415 -0.140504
v -2.525374 3.691121 -0.140504
v -2.588141 3.689133 -0.140504
v -2.649533 3.687451 -0.140504
v -2.709548 3.686075 -0.140504
v -2.768187 3.685005 -0.140504
v -2.825450 3.684240 -0.140504
v -2.881337 3.683782 -0.140504
v -2.935848 3.683629 -0.140504
v -4.524839 3.683629 -0.140504
v -4.524839 4.219409 -0.140504
v -1.339518 4.219409 -0.140504
v -1.339518 3.782711 -0.140504
v -3.449610 1.309317 -0.140504
v -3.856949 0.857941 -0.140504
v -3.783325 0.863216 -0.140504
v -3.710466 0.868033 -0.140504
v -3.638371 0.872390 -0.140504
v -3.567041 0.876290 -0.140504
v -3.496475 0.879730 -0.140504
v -3.426674 0.882712 -0.140504
v -3.357637 0.885235 -0.140504
v -3.289365 0.887299 -0.140504
v -3.221858 0.888904 -0.140504
v -3.155114 0.890051 -0.140504
v -3.089136 0.890739 -0.140504
v -3.023921 0.890968 -0.140504
v -1.222087 0.890968 -0.140504
v -1.222087 0.322161 -0.140504
v -1.222087 0.322161 0.859496
v -4.671628 0.322161 -0.140504
v -4.671628 0.322161 0.859496
v -4.671628 0.857941 -0.140504
v -4.671628 0.857941 0.859496
v -2.190894 3.705647 -0.140504
v -2.190894 3.705647 0.859496
v -2.260542 3.702130 -0.140504
v -2.260542 3.702130 0.859496
v -2.328815 3.698919 -0.140504
v -2.328815 3.698919 0.859496
v -2.395710 3.696014 -0.140504
v -2.395710 3.696014 0.859496
v -2.461230 3.693415 -0.140504
v -2.461230 3.693415 0.859496
v -2.525374 3.691121 -0.140504
v -2.525374 3.691121 0.859496
v -2.588141 3.689133 -0.140504
v -2.588141 3.689133 0.859496
v -2.649533 3.687451 -0.140504
v -2.649533 3.687451 0.859496
v -2.709548 3.686075 -0.140504
v -2.709548 3.686075 0.859496
v -2.768187 3.685005 -0.140504
v -2.768187 3.685005 0.859496
v -2.825450 3.684240 -0.140504
v -2.825450 3.684240 0.859496
v -2.881337 3.683782 -0.140504
v -2.881337 3.683782 0.859496
v -2.935848 3.683629 -0.140504
v -2.935848 3.683629 0.859496
v -4.524839 3.683629 -0.140504
v -4.524839 3.683629 0.859496
v -4.524839 4.219409 -0.140504
v -4.524839 4.219409 0.859496
v -1.339518 4.219409 -0.140504
v -1.339518 4.219409 0.859496
v -1.339518 3.782711 -0.140504
v -1.339518 3.782711 0.859496
v -3.449610 1.309317 -0.140504
v -3.449610 1.309317 0.859496
v -3.856949 0.857941 -0.140504
v -3.856949 0.857941 0.859496
v -3.783325 0.863216 -0.140504
v -3.783325 0.863216 0.859496
v -3.710466 0.868033 -0.140504
v -3.710466 0.868033 0.859496
v -3.638371 0.872390 -0.140504
v -3.638371 0.872390 0.859496
v -3.567041 0.876290 -0.140504
v -3.567041 0.876290 0.859496
v -3.496475 0.879730 -0.140504
v -3.496475 0.879730 0.859496
v -3.426674 0.882712 -0.140504
v -3.426674 0.882712 0.859496
v -3.357637 0.885235 -0.140504
v -3.357637 0.885235 0.859496
v -3.289365 0.887299 -0.140504
v -3.289365 0.887299 0.859496
v -3.221858 0.888904 -0.140504
v -3.221858 0.888904 0.859496
v -3.155114 0.890051 -0.140504
v -3.155114 0.890051 0.859496
v -3.089136 0.890739 -0.140504
v -3.089136 0.890739 0.859496
v -3.023921 0.890968 -0.140504
v -3.023921 0.890968 0.859496
v -1.222087 0.890968 -0.140504
v -1.222087 0.890968 0.859496
vn 0.000000 -0.000000 1.000000
vn 0.000000 0.000000 -1.000000
vn -0.707100 -0.707100 -0.000000
vn 0.707100 -0.707100 -0.000000
vn -0.936500 0.350700 0.000000
vn -0.899400 -0.437000 0.000000
vn 0.048700 -0.998800 0.000000
vn 0.045200 -0.999000 0.000000
vn 0.041500 -0.999100 0.000000
vn 0.037700 -0.999300 0.000000
vn 0.033700 -0.999400 0.000000
vn 0.029500 -0.999600 0.000000
vn 0.025200 -0.999700 0.000000
vn 0.020600 -0.999800 0.000000
vn 0.015800 -0.999900 0.000000
vn 0.010800 -0.999900 0.000000
vn 0.005500 -1.000000 0.000000
vn 0.001400 -1.000000 0.000000
vn -0.707100 0.707100 0.000000
vn 0.707100 0.707100 0.000000
vn 0.938300 -0.345900 0.000000
vn 0.751700 -0.659600 0.000000
vn 0.898700 0.438600 0.000000
vn -0.068700 0.997600 0.000000
vn -0.063100 0.998000 0.000000
vn -0.057500 0.998300 0.000000
vn -0.051600 0.998700 0.000000
vn -0.045700 0.999000 0.000000
vn -0.039600 0.999200 0.000000
vn -0.033400 0.999400 0.000000
vn -0.027000 0.999600 0.000000
vn -0.020500 0.999800 0.000000
vn -0.013800 0.999900 0.000000
vn -0.007000 1.000000 0.000000
vn -0.001800 1.000000 0.000000
s off
f 17//1 19//1 18//1
f 17//1 20//1 19//1
f 17//1 4//1 20//1
f 4//1 21//1 20//1
f 17//1 5//1 4//1
f 3//1 21//1 4//1
f 17//1 6//1 5//1
f 17//1 7//1 6//1
f 17//1 8//1 7//1
f 17//1 9//1 8//1
f 17//1 10//1 9//1
f 17//1 11//1 10//1
f 17//1 12//1 11//1
f 17//1 13//1 12//1
f 17//1 14//1 13//1
f 17//1 15//1 14//1
f 17//1 16//1 15//1
f 3//1 22//1 21//1
f 33//1 35//1 34//1
f 33//1 1//1 35//1
f 32//1 1//1 33//1
f 31//1 1//1 32//1
f 30//1 1//1 31//1
f 29//1 1//1 30//1
f 28//1 1//1 29//1
f 27//1 1//1 28//1
f 26//1 1//1 27//1
f 25//1 1//1 26//1
f 24//1 1//1 25//1
f 23//1 1//1 24//1
f 22//1 1//1 23//1
f 2//1 22//1 3//1
f 2//1 1//1 22//1
f 54//2 52//2 53//2
f 55//2 52//2 54//2
f 39//2 52//2 55//2
f 56//2 39//2 55//2
f 40//2 52//2 39//2
f 56//2 38//2 39//2
f 41//2 52//2 40//2
f 42//2 52//2 41//2
f 43//2 52//2 42//2
f 44//2 52//2 43//2
f 45//2 52//2 44//2
f 46//2 52//2 45//2
f 47//2 52//2 46//2
f 48//2 52//2 47//2
f 49//2 52//2 48//2
f 50//2 52//2 49//2
f 51//2 52//2 50//2
f 57//2 38//2 56//2
f 70//2 68//2 69//2
f 36//2 68//2 70//2
f 36//2 67//2 68//2
f 36//2 66//2 67//2
f 36//2 65//2 66//2
f 36//2 64//2 65//2
f 36//2 63//2 64//2
f 36//2 62//2 63//2
f 36//2 61//2 62//2
f 36//2 60//2 61//2
f 36//2 59//2 60//2
f 36//2 58//2 59//2
f 36//2 57//2 58//2
f 57//2 37//2 38//2
f 36//2 37//2 57//2
s 1
f 74//3 73//3 71//4
f 74//3 76//5 75//5
f 78//6 77//6 75//5
f 80//7 79//7 77//6
f 82//8 81//8 79//7
f 84//9 83//9 81//8
f 86//10 85//10 83//9
f 88//11 87//11 85//10
f 90//12 89//12 87//11
f 92//13 91//13 89//12
f 94//14 93//14 91//13
f 96//15 95//15 93//14
f 98//16 97//16 95//15
f 100//17 99//17 97//16
f 102//18 101//18 99//17
f 104//3 103//3 101//18
f 106//19 105//19 103//3
f 108//20 107//20 105//19
f 110//21 109//21 107//20
f 112//22 111//22 109//21
f 112//22 114//23 113//23
f 116//24 115//24 113//23
f 118//25 117//25 115//24
f 120//26 119//26 117//25
f 122//27 121//27 119//26
f 124//28 123//28 121//27
f 126//29 125//29 123//28
f 128//30 127//30 125//29
f 130//31 129//31 127//30
f 132//32 131//32 129//31
f 134//33 133//33 131//32
f 136//34 135//34 133//33
f 138//35 137//35 135//34
f 140//20 139//20 137//35
f 72//4 71//4 139//20
f 72//4 74//3 71//4
f 73//3 74//3 75//5
f 76//5 78//6 75//5
f 78//6 80//7 77//6
f 80//7 82//8 79//7
f 82//8 84//9 81//8
f 84//9 86//10 83//9
f 86//10 88//11 85//10
f 88//11 90//12 87//11
f 90//12 92//13 89//12
f 92//13 94//14 91//13
f 94//14 96//15 93//14
f 96//15 98//16 95//15
f 98//16 100//17 97//16
f 100//17 102//18 99//17
f 102//18 104//3 101//18
f 104//3 106//19 103//3
f 106//19 108//20 105//19
f 108//20 110//21 107//20
f 110//21 112//22 109//21
f 111//22 112//22 113//23
f 114//23 116//24 113//23
f 116//24 118//25 115//24
f 118//25 120//26 117//25
f 120//26 122//27 119//26
f 122//27 124//28 121//27
f 124//28 126//29 123//28
f 126//29 128//30 125//29
f 128//30 130//31 127//30
f 130//31 132//32 129//31
f 132//32 134//33 131//32
f 134//33 136//34 133//33
f 136//34 138//35 135//34
f 138//35 140//20 137//35
f 140//20 72//4 139//20
