# Blender v2.72 (sub 0) OBJ File: ''
# www.blender.org
o Text
v -0.209243 0.322161 0.859496
v -4.223922 0.322161 0.859496
v -4.223922 5.701977 0.859497
v -0.334013 5.701977 0.859497
v -0.334013 5.067115 0.859496
v -3.511995 5.067115 0.859496
v -3.511995 3.419409 0.859496
v -0.535848 3.419409 0.859496
v -0.535848 2.788216 0.859496
v -3.511995 2.788216 0.859496
v -3.511995 0.957023 0.859496
v -0.209243 0.957023 0.859496
v -0.209243 0.322161 -0.140504
v -4.223922 0.322161 -0.140504
v -4.223922 5.701977 -0.140503
v -0.334013 5.701977 -0.140503
v -0.334013 5.067115 -0.140503
v -3.511995 5.067115 -0.140503
v -3.511995 3.419409 -0.140504
v -0.535848 3.419409 -0.140504
v -0.535848 2.788216 -0.140504
v -3.511995 2.788216 -0.140504
v -3.511995 0.957023 -0.140504
v -0.209243 0.957023 -0.140504
v -0.209243 0.322161 -0.140504
v -0.209243 0.322161 0.859496
v -4.223922 0.322161 -0.140504
v -4.223922 0.322161 0.859496
v -4.223922 5.701977 -0.140503
v -4.223922 5.701977 0.859497
v -0.334013 5.701977 -0.140503
v -0.334013 5.701977 0.859497
v -0.334013 5.067115 -0.140503
v -0.334013 5.067115 0.859496
v -3.511995 5.067115 -0.140503
v -3.511995 5.067115 0.859496
v -3.511995 3.419409 -0.140504
v -3.511995 3.419409 0.859496
v -0.535848 3.419409 -0.140504
v -0.535848 3.419409 0.859496
v -0.535848 2.788216 -0.140504
v -0.535848 2.788216 0.859496
v -3.511995 2.788216 -0.140504
v -3.511995 2.788216 0.859496
v -3.511995 0.957023 -0.140504
v -3.511995 0.957023 0.859496
v -0.209243 0.957023 -0.140504
v -0.209243 0.957023 0.859496
vn 0.000000 -0.000000 1.000000
vn 0.000000 0.000000 -1.000000
vn -0.707100 -0.707100 -0.000000
vn 0.707100 -0.707100 -0.000000
vn -0.707100 0.707100 0.000000
vn 0.707100 0.707100 0.000000
s off
f 2//1 6//1 3//1
f 6//1 4//1 3//1
f 6//1 5//1 4//1
f 2//1 7//1 6//1
f 2//1 10//1 7//1
f 10//1 8//1 7//1
f 10//1 9//1 8//1
f 2//1 11//1 10//1
f 2//1 12//1 11//1
f 2//1 1//1 12//1
f 18//2 14//2 15//2
f 16//2 18//2 15//2
f 17//2 18//2 16//2
f 19//2 14//2 18//2
f 22//2 14//2 19//2
f 20//2 22//2 19//2
f 21//2 22//2 20//2
f 23//2 14//2 22//2
f 24//2 14//2 23//2
f 13//2 14//2 24//2
s 1
f 28//3 27//3 25//4
f 30//5 29//5 27//3
f 32//6 31//6 29//5
f 32//6 34//4 33//4
f 36//4 35//4 33//4
f 38//6 37//6 35//4
f 40//6 39//6 37//6
f 42//4 41//4 39//6
f 44//4 43//4 41//4
f 46//6 45//6 43//4
f 48//6 47//6 45//6
f 26//4 25//4 47//6
f 26//4 28//3 25//4
f 28//3 30//5 27//3
f 30//5 32//6 29//5
f 31//6 32//6 33//4
f 34//4 36//4 33//4
f 36//4 38//6 35//4
f 38//6 40//6 37//6
f 40//6 42//4 39//6
f 42//4 44//4 41//4
f 44//4 46//6 43//4
f 46//6 48//6 45//6
f 48//6 26//4 47//6
