# Blender v2.72 (sub 0) OBJ File: ''
# www.blender.org
o Text
v -3.489977 0.322161 0.859496
v -4.201903 0.322161 0.859496
v -4.201903 5.701977 0.859497
v -0.572546 5.701977 0.859497
v -0.572546 5.067115 0.859496
v -3.489977 5.067115 0.859496
v -3.489977 3.401060 0.859496
v -0.965206 3.401060 0.859496
v -0.965206 2.766197 0.859496
v -3.489977 2.766197 0.859496
v -3.489977 0.322161 -0.140504
v -4.201903 0.322161 -0.140504
v -4.201903 5.701977 -0.140503
v -0.572546 5.701977 -0.140503
v -0.572546 5.067115 -0.140503
v -3.489977 5.067115 -0.140503
v -3.489977 3.401060 -0.140504
v -0.965206 3.401060 -0.140504
v -0.965206 2.766197 -0.140504
v -3.489977 2.766197 -0.140504
v -3.489977 0.322161 -0.140504
v -3.489977 0.322161 0.859496
v -4.201903 0.322161 -0.140504
v -4.201903 0.322161 0.859496
v -4.201903 5.701977 -0.140503
v -4.201903 5.701977 0.859497
v -0.572546 5.701977 -0.140503
v -0.572546 5.701977 0.859497
v -0.572546 5.067115 -0.140503
v -0.572546 5.067115 0.859496
v -3.489977 5.067115 -0.140503
v -3.489977 5.067115 0.859496
v -3.489977 3.401060 -0.140504
v -3.489977 3.401060 0.859496
v -0.965206 3.401060 -0.140504
v -0.965206 3.401060 0.859496
v -0.965206 2.766197 -0.140504
v -0.965206 2.766197 0.859496
v -3.489977 2.766197 -0.140504
v -3.489977 2.766197 0.859496
vn 0.000000 -0.000000 1.000000
vn 0.000000 0.000000 -1.000000
vn -0.707100 -0.707100 -0.000000
vn 0.707100 -0.707100 -0.000000
vn -0.707100 0.707100 0.000000
vn 0.707100 0.707100 0.000000
s off
f 2//1 6//1 3//1
f 6//1 4//1 3//1
f 6//1 5//1 4//1
f 2//1 7//1 6//1
f 2//1 10//1 7//1
f 10//1 8//1 7//1
f 10//1 9//1 8//1
f 2//1 1//1 10//1
f 16//2 12//2 13//2
f 14//2 16//2 13//2
f 15//2 16//2 14//2
f 17//2 12//2 16//2
f 20//2 12//2 17//2
f 18//2 20//2 17//2
f 19//2 20//2 18//2
f 11//2 12//2 20//2
s 1
f 24//3 23//3 21//4
f 26//5 25//5 23//3
f 28//6 27//6 25//5
f 28//6 30//4 29//4
f 32//4 31//4 29//4
f 34//6 33//6 31//4
f 36//6 35//6 33//6
f 38//4 37//4 35//6
f 40//4 39//4 37//4
f 22//4 21//4 39//4
f 22//4 24//3 21//4
f 24//3 26//5 23//3
f 26//5 28//6 25//5
f 27//6 28//6 29//4
f 30//4 32//4 29//4
f 32//4 34//6 31//4
f 34//6 36//6 33//6
f 36//6 38//4 35//6
f 38//4 40//4 37//4
f 40//4 22//4 39//4
