# Blender v2.72 (sub 0) OBJ File: ''
# www.blender.org
o Text
v -3.504656 0.322161 0.859496
v -4.216582 0.322161 0.859496
v -4.216582 5.701977 0.859497
v -3.504656 5.701977 0.859497
v -3.504656 3.492803 0.859496
v -0.708325 3.492803 0.859496
v -0.708325 5.701977 0.859497
v 0.003601 5.701977 0.859497
v 0.003601 0.322161 0.859496
v -0.708325 0.322161 0.859496
v -0.708325 2.857941 0.859496
v -3.504656 2.857941 0.859496
v -3.504656 0.322161 -0.140504
v -4.216582 0.322161 -0.140504
v -4.216582 5.701977 -0.140503
v -3.504656 5.701977 -0.140503
v -3.504656 3.492803 -0.140504
v -0.708325 3.492803 -0.140504
v -0.708325 5.701977 -0.140503
v 0.003601 5.701977 -0.140503
v 0.003601 0.322161 -0.140504
v -0.708325 0.322161 -0.140504
v -0.708325 2.857941 -0.140504
v -3.504656 2.857941 -0.140504
v -3.504656 0.322161 -0.140504
v -3.504656 0.322161 0.859496
v -4.216582 0.322161 -0.140504
v -4.216582 0.322161 0.859496
v -4.216582 5.701977 -0.140503
v -4.216582 5.701977 0.859497
v -3.504656 5.701977 -0.140503
v -3.504656 5.701977 0.859497
v -3.504656 3.492803 -0.140504
v -3.504656 3.492803 0.859496
v -0.708325 3.492803 -0.140504
v -0.708325 3.492803 0.859496
v -0.708325 5.701977 -0.140503
v -0.708325 5.701977 0.859497
v 0.003601 5.701977 -0.140503
v 0.003601 5.701977 0.859497
v 0.003601 0.322161 -0.140504
v 0.003601 0.322161 0.859496
v -0.708325 0.322161 -0.140504
v -0.708325 0.322161 0.859496
v -0.708325 2.857941 -0.140504
v -0.708325 2.857941 0.859496
v -3.504656 2.857941 -0.140504
v -3.504656 2.857941 0.859496
vn 0.000000 -0.000000 1.000000
vn 0.000000 0.000000 -1.000000
vn -0.707100 -0.707100 -0.000000
vn 0.707100 -0.707100 -0.000000
vn -0.707100 0.707100 0.000000
vn 0.707100 0.707100 0.000000
s off
f 2//1 4//1 3//1
f 2//1 5//1 4//1
f 6//1 8//1 7//1
f 6//1 9//1 8//1
f 2//1 12//1 5//1
f 12//1 6//1 5//1
f 12//1 11//1 6//1
f 11//1 9//1 6//1
f 2//1 1//1 12//1
f 10//1 9//1 11//1
f 16//2 14//2 15//2
f 17//2 14//2 16//2
f 20//2 18//2 19//2
f 21//2 18//2 20//2
f 24//2 14//2 17//2
f 18//2 24//2 17//2
f 23//2 24//2 18//2
f 21//2 23//2 18//2
f 13//2 14//2 24//2
f 21//2 22//2 23//2
s 1
f 28//3 27//3 25//4
f 30//5 29//5 27//3
f 32//6 31//6 29//5
f 34//6 33//6 31//6
f 36//5 35//5 33//6
f 38//5 37//5 35//5
f 40//6 39//6 37//5
f 42//4 41//4 39//6
f 44//3 43//3 41//4
f 46//3 45//3 43//3
f 48//4 47//4 45//3
f 26//4 25//4 47//4
f 26//4 28//3 25//4
f 28//3 30//5 27//3
f 30//5 32//6 29//5
f 32//6 34//6 31//6
f 34//6 36//5 33//6
f 36//5 38//5 35//5
f 38//5 40//6 37//5
f 40//6 42//4 39//6
f 42//4 44//3 41//4
f 44//3 46//3 43//3
f 46//3 48//4 45//3
f 48//4 26//4 47//4
