# Blender v2.72 (sub 0) OBJ File: ''
# www.blender.org
o Text
v -3.574380 0.322161 0.859496
v -4.260619 0.322161 0.859496
v -4.260619 5.701977 0.859497
v -3.189059 5.701977 0.859497
v -1.915665 1.892803 0.859496
v -1.886970 1.805979 0.859496
v -1.859600 1.722874 0.859496
v -1.833555 1.643491 0.859496
v -1.808835 1.567829 0.859496
v -1.785440 1.495887 0.859496
v -1.763371 1.427665 0.859496
v -1.742627 1.363165 0.859496
v -1.723208 1.302385 0.859496
v -1.705114 1.245326 0.859496
v -1.688346 1.191988 0.859496
v -1.672902 1.142370 0.859496
v -1.658784 1.096473 0.859496
v -1.642780 1.147314 0.859496
v -1.625349 1.201977 0.859496
v -1.606490 1.260464 0.859496
v -1.586205 1.322773 0.859496
v -1.564492 1.388904 0.859496
v -1.541353 1.458858 0.859496
v -1.516786 1.532635 0.859496
v -1.490792 1.610234 0.859496
v -1.463371 1.691656 0.859496
v -1.434523 1.776901 0.859496
v -1.404248 1.865968 0.859496
v -1.372546 1.958858 0.859496
v -0.084472 5.701977 0.859497
v 0.873326 5.701977 0.859497
v 0.873326 0.322161 0.859496
v 0.187088 0.322161 0.859496
v 0.187088 4.824914 0.859496
v -1.376215 0.322161 0.859496
v -2.018417 0.322161 0.859496
v -3.574380 4.901978 0.859496
v -3.574380 0.322161 -0.140504
v -4.260619 0.322161 -0.140504
v -4.260619 5.701977 -0.140503
v -3.189059 5.701977 -0.140503
v -1.915665 1.892803 -0.140504
v -1.886970 1.805979 -0.140504
v -1.859600 1.722874 -0.140504
v -1.833555 1.643491 -0.140504
v -1.808835 1.567829 -0.140504
v -1.785440 1.495887 -0.140504
v -1.763371 1.427665 -0.140504
v -1.742627 1.363165 -0.140504
v -1.723208 1.302385 -0.140504
v -1.705114 1.245326 -0.140504
v -1.688346 1.191988 -0.140504
v -1.672902 1.142370 -0.140504
v -1.658784 1.096473 -0.140504
v -1.642780 1.147314 -0.140504
v -1.625349 1.201977 -0.140504
v -1.606490 1.260464 -0.140504
v -1.586205 1.322773 -0.140504
v -1.564492 1.388904 -0.140504
v -1.541353 1.458858 -0.140504
v -1.516786 1.532635 -0.140504
v -1.490792 1.610234 -0.140504
v -1.463371 1.691656 -0.140504
v -1.434523 1.776901 -0.140504
v -1.404248 1.865968 -0.140504
v -1.372546 1.958858 -0.140504
v -0.084472 5.701977 -0.140503
v 0.873326 5.701977 -0.140503
v 0.873326 0.322161 -0.140504
v 0.187088 0.322161 -0.140504
v 0.187088 4.824914 -0.140503
v -1.376215 0.322161 -0.140504
v -2.018417 0.322161 -0.140504
v -3.574380 4.901978 -0.140503
v -3.574380 0.322161 -0.140504
v -3.574380 0.322161 0.859496
v -4.260619 0.322161 -0.140504
v -4.260619 0.322161 0.859496
v -4.260619 5.701977 -0.140503
v -4.260619 5.701977 0.859497
v -3.189059 5.701977 -0.140503
v -3.189059 5.701977 0.859497
v -1.915665 1.892803 -0.140504
v -1.915665 1.892803 0.859496
v -1.886970 1.805979 -0.140504
v -1.886970 1.805979 0.859496
v -1.859600 1.722874 -0.140504
v -1.859600 1.722874 0.859496
v -1.833555 1.643491 -0.140504
v -1.833555 1.643491 0.859496
v -1.808835 1.567829 -0.140504
v -1.808835 1.567829 0.859496
v -1.785440 1.495887 -0.140504
v -1.785440 1.495887 0.859496
v -1.763371 1.427665 -0.140504
v -1.763371 1.427665 0.859496
v -1.742627 1.363165 -0.140504
v -1.742627 1.363165 0.859496
v -1.723208 1.302385 -0.140504
v -1.723208 1.302385 0.859496
v -1.705114 1.245326 -0.140504
v -1.705114 1.245326 0.859496
v -1.688346 1.191988 -0.140504
v -1.688346 1.191988 0.859496
v -1.672902 1.142370 -0.140504
v -1.672902 1.142370 0.859496
v -1.658784 1.096473 -0.140504
v -1.658784 1.096473 0.859496
v -1.642780 1.147314 -0.140504
v -1.642780 1.147314 0.859496
v -1.625349 1.201977 -0.140504
v -1.625349 1.201977 0.859496
v -1.606490 1.260464 -0.140504
v -1.606490 1.260464 0.859496
v -1.586205 1.322773 -0.140504
v -1.586205 1.322773 0.859496
v -1.564492 1.388904 -0.140504
v -1.564492 1.388904 0.859496
v -1.541353 1.458858 -0.140504
v -1.541353 1.458858 0.859496
v -1.516786 1.532635 -0.140504
v -1.516786 1.532635 0.859496
v -1.490792 1.610234 -0.140504
v -1.490792 1.610234 0.859496
v -1.463371 1.691656 -0.140504
v -1.463371 1.691656 0.859496
v -1.434523 1.776901 -0.140504
v -1.434523 1.776901 0.859496
v -1.404248 1.865968 -0.140504
v -1.404248 1.865968 0.859496
v -1.372546 1.958858 -0.140504
v -1.372546 1.958858 0.859496
v -0.084472 5.701977 -0.140503
v -0.084472 5.701977 0.859497
v 0.873326 5.701977 -0.140503
v 0.873326 5.701977 0.859497
v 0.873326 0.322161 -0.140504
v 0.873326 0.322161 0.859496
v 0.187088 0.322161 -0.140504
v 0.187088 0.322161 0.859496
v 0.187088 4.824914 -0.140503
v 0.187088 4.824914 0.859496
v -1.376215 0.322161 -0.140504
v -1.376215 0.322161 0.859496
v -2.018417 0.322161 -0.140504
v -2.018417 0.322161 0.859496
v -3.574380 4.901978 -0.140503
v -3.574380 4.901978 0.859496
vn 0.000000 -0.000000 1.000000
vn 0.000000 0.000000 -1.000000
vn -0.707100 -0.707100 -0.000000
vn 0.707100 -0.707100 -0.000000
vn -0.707100 0.707100 0.000000
vn 0.584400 0.811500 0.000000
vn 0.948900 0.315400 0.000000
vn 0.949700 0.313300 0.000000
vn 0.950000 0.312300 0.000000
vn 0.950400 0.311100 0.000000
vn 0.950800 0.309900 0.000000
vn 0.951200 0.308500 0.000000
vn 0.951700 0.307000 0.000000
vn 0.952300 0.305300 0.000000
vn 0.952900 0.303300 0.000000
vn 0.953600 0.301100 0.000000
vn 0.954400 0.298500 0.000000
vn 0.955300 0.295600 0.000000
vn 0.003300 1.000000 0.000000
vn -0.953300 0.302000 0.000000
vn -0.952200 0.305300 0.000000
vn -0.951300 0.308200 0.000000
vn -0.950500 0.310800 0.000000
vn -0.949800 0.313000 0.000000
vn -0.949100 0.315000 0.000000
vn -0.948500 0.316800 0.000000
vn -0.948000 0.318400 0.000000
vn -0.947500 0.319900 0.000000
vn -0.947000 0.321200 0.000000
vn -0.946600 0.322400 0.000000
vn -0.946000 0.324200 0.000000
vn -0.580800 0.814100 0.000000
vn 0.707100 0.707100 0.000000
vn -0.166300 -0.986100 0.000000
vn 0.579700 -0.814900 -0.000000
vn -0.582400 -0.812900 -0.000000
vn 0.163000 -0.986600 0.000000
s off
f 2//1 37//1 3//1
f 37//1 4//1 3//1
f 37//1 5//1 4//1
f 29//1 34//1 30//1
f 34//1 31//1 30//1
f 34//1 32//1 31//1
f 2//1 1//1 37//1
f 36//1 5//1 37//1
f 29//1 35//1 34//1
f 33//1 32//1 34//1
f 28//1 35//1 29//1
f 36//1 6//1 5//1
f 27//1 35//1 28//1
f 36//1 7//1 6//1
f 26//1 35//1 27//1
f 36//1 8//1 7//1
f 25//1 35//1 26//1
f 36//1 9//1 8//1
f 24//1 35//1 25//1
f 36//1 10//1 9//1
f 23//1 35//1 24//1
f 36//1 11//1 10//1
f 22//1 35//1 23//1
f 36//1 12//1 11//1
f 21//1 35//1 22//1
f 36//1 13//1 12//1
f 20//1 35//1 21//1
f 36//1 14//1 13//1
f 19//1 35//1 20//1
f 36//1 15//1 14//1
f 18//1 35//1 19//1
f 36//1 16//1 15//1
f 17//1 35//1 18//1
f 36//1 17//1 16//1
f 36//1 35//1 17//1
f 74//2 39//2 40//2
f 41//2 74//2 40//2
f 42//2 74//2 41//2
f 71//2 66//2 67//2
f 68//2 71//2 67//2
f 69//2 71//2 68//2
f 38//2 39//2 74//2
f 42//2 73//2 74//2
f 72//2 66//2 71//2
f 69//2 70//2 71//2
f 72//2 65//2 66//2
f 43//2 73//2 42//2
f 72//2 64//2 65//2
f 44//2 73//2 43//2
f 72//2 63//2 64//2
f 45//2 73//2 44//2
f 72//2 62//2 63//2
f 46//2 73//2 45//2
f 72//2 61//2 62//2
f 47//2 73//2 46//2
f 72//2 60//2 61//2
f 48//2 73//2 47//2
f 72//2 59//2 60//2
f 49//2 73//2 48//2
f 72//2 58//2 59//2
f 50//2 73//2 49//2
f 72//2 57//2 58//2
f 51//2 73//2 50//2
f 72//2 56//2 57//2
f 52//2 73//2 51//2
f 72//2 55//2 56//2
f 53//2 73//2 52//2
f 72//2 54//2 55//2
f 54//2 73//2 53//2
f 72//2 73//2 54//2
s 1
f 78//3 77//3 75//4
f 80//5 79//5 77//3
f 82//6 81//6 79//5
f 84//7 83//7 81//6
f 86//8 85//8 83//7
f 88//9 87//9 85//8
f 90//10 89//10 87//9
f 92//11 91//11 89//10
f 94//12 93//12 91//11
f 96//13 95//13 93//12
f 98//14 97//14 95//13
f 100//15 99//15 97//14
f 102//16 101//16 99//15
f 104//17 103//17 101//16
f 106//18 105//18 103//17
f 108//19 107//19 105//18
f 110//20 109//20 107//19
f 112//21 111//21 109//20
f 114//22 113//22 111//21
f 116//23 115//23 113//22
f 118//24 117//24 115//23
f 120//25 119//25 117//24
f 122//26 121//26 119//25
f 124//27 123//27 121//26
f 126//28 125//28 123//27
f 128//29 127//29 125//28
f 130//30 129//30 127//29
f 132//31 131//31 129//30
f 134//32 133//32 131//31
f 136//33 135//33 133//32
f 138//4 137//4 135//33
f 140//3 139//3 137//4
f 142//34 141//34 139//3
f 144//35 143//35 141//34
f 146//36 145//36 143//35
f 148//37 147//37 145//36
f 76//4 75//4 147//37
f 76//4 78//3 75//4
f 78//3 80//5 77//3
f 80//5 82//6 79//5
f 82//6 84//7 81//6
f 84//7 86//8 83//7
f 86//8 88//9 85//8
f 88//9 90//10 87//9
f 90//10 92//11 89//10
f 92//11 94//12 91//11
f 94//12 96//13 93//12
f 96//13 98//14 95//13
f 98//14 100//15 97//14
f 100//15 102//16 99//15
f 102//16 104//17 101//16
f 104//17 106//18 103//17
f 106//18 108//19 105//18
f 108//19 110//20 107//19
f 110//20 112//21 109//20
f 112//21 114//22 111//21
f 114//22 116//23 113//22
f 116//23 118//24 115//23
f 118//24 120//25 117//24
f 120//25 122//26 119//25
f 122//26 124//27 121//26
f 124//27 126//28 123//27
f 126//28 128//29 125//28
f 128//29 130//30 127//29
f 130//30 132//31 129//30
f 132//31 134//32 131//31
f 134//32 136//33 133//32
f 136//33 138//4 135//33
f 138//4 140//3 137//4
f 140//3 142//34 139//3
f 142//34 144//35 141//34
f 144//35 146//36 143//35
f 146//36 148//37 145//36
f 148//37 76//4 147//37
