# Blender v2.72 (sub 0) OBJ File: ''
# www.blender.org
o Text
v -3.563371 0.322161 0.859496
v -4.245940 0.322161 0.859496
v -4.245940 5.701977 0.859497
v -3.515665 5.701977 0.859497
v -0.689977 1.478124 0.859496
v -0.689977 5.701977 0.859497
v -0.007408 5.701977 0.859497
v -0.007408 0.322161 0.859496
v -0.737683 0.322161 0.859496
v -3.563371 4.549684 0.859496
v -3.563371 0.322161 -0.140504
v -4.245940 0.322161 -0.140504
v -4.245940 5.701977 -0.140503
v -3.515665 5.701977 -0.140503
v -0.689977 1.478124 -0.140504
v -0.689977 5.701977 -0.140503
v -0.007408 5.701977 -0.140503
v -0.007408 0.322161 -0.140504
v -0.737683 0.322161 -0.140504
v -3.563371 4.549684 -0.140504
v -3.563371 0.322161 -0.140504
v -3.563371 0.322161 0.859496
v -4.245940 0.322161 -0.140504
v -4.245940 0.322161 0.859496
v -4.245940 5.701977 -0.140503
v -4.245940 5.701977 0.859497
v -3.515665 5.701977 -0.140503
v -3.515665 5.701977 0.859497
v -0.689977 1.478124 -0.140504
v -0.689977 1.478124 0.859496
v -0.689977 5.701977 -0.140503
v -0.689977 5.701977 0.859497
v -0.007408 5.701977 -0.140503
v -0.007408 5.701977 0.859497
v -0.007408 0.322161 -0.140504
v -0.007408 0.322161 0.859496
v -0.737683 0.322161 -0.140504
v -0.737683 0.322161 0.859496
v -3.563371 4.549684 -0.140504
v -3.563371 4.549684 0.859496
vn 0.000000 -0.000000 1.000000
vn 0.000000 0.000000 -1.000000
vn -0.707100 -0.707100 -0.000000
vn 0.707100 -0.707100 -0.000000
vn -0.707100 0.707100 0.000000
vn 0.471200 0.882100 0.000000
vn -0.290600 0.956900 0.000000
vn 0.707100 0.707100 0.000000
vn -0.471300 -0.882000 -0.000000
vn 0.290400 -0.956900 0.000000
s off
f 2//1 4//1 3//1
f 2//1 10//1 4//1
f 10//1 5//1 4//1
f 5//1 7//1 6//1
f 5//1 8//1 7//1
f 2//1 1//1 10//1
f 9//1 5//1 10//1
f 9//1 8//1 5//1
f 14//2 12//2 13//2
f 20//2 12//2 14//2
f 15//2 20//2 14//2
f 17//2 15//2 16//2
f 18//2 15//2 17//2
f 11//2 12//2 20//2
f 15//2 19//2 20//2
f 18//2 19//2 15//2
s 1
f 24//3 23//3 21//4
f 26//5 25//5 23//3
f 28//6 27//6 25//5
f 30//7 29//7 27//6
f 32//5 31//5 29//7
f 34//8 33//8 31//5
f 36//4 35//4 33//8
f 38//9 37//9 35//4
f 40//10 39//10 37//9
f 22//4 21//4 39//10
f 22//4 24//3 21//4
f 24//3 26//5 23//3
f 26//5 28//6 25//5
f 28//6 30//7 27//6
f 30//7 32//5 29//7
f 32//5 34//8 31//5
f 34//8 36//4 33//8
f 36//4 38//9 35//4
f 38//9 40//10 37//9
f 40//10 22//4 39//10
