# Blender v2.72 (sub 0) OBJ File: ''
# www.blender.org
o Text
v -2.157866 0.322161 0.859496
v -2.869793 0.322161 0.859496
v -2.869793 5.067115 0.859496
v -4.642270 5.067115 0.859496
v -4.642270 5.701977 0.859497
v -0.378050 5.701977 0.859497
v -0.378050 5.067115 0.859496
v -2.157866 5.067115 0.859496
v -2.157866 0.322161 -0.140504
v -2.869793 0.322161 -0.140504
v -2.869793 5.067115 -0.140503
v -4.642270 5.067115 -0.140503
v -4.642270 5.701977 -0.140503
v -0.378050 5.701977 -0.140503
v -0.378050 5.067115 -0.140503
v -2.157866 5.067115 -0.140503
v -2.157866 0.322161 -0.140504
v -2.157866 0.322161 0.859496
v -2.869793 0.322161 -0.140504
v -2.869793 0.322161 0.859496
v -2.869793 5.067115 -0.140503
v -2.869793 5.067115 0.859496
v -4.642270 5.067115 -0.140503
v -4.642270 5.067115 0.859496
v -4.642270 5.701977 -0.140503
v -4.642270 5.701977 0.859497
v -0.378050 5.701977 -0.140503
v -0.378050 5.701977 0.859497
v -0.378050 5.067115 -0.140503
v -0.378050 5.067115 0.859496
v -2.157866 5.067115 -0.140503
v -2.157866 5.067115 0.859496
vn 0.000000 -0.000000 1.000000
vn 0.000000 0.000000 -1.000000
vn -0.707100 -0.707100 -0.000000
vn 0.707100 -0.707100 -0.000000
vn -0.707100 0.707100 0.000000
vn 0.707100 0.707100 0.000000
s off
f 4//1 6//1 5//1
f 4//1 7//1 6//1
f 3//1 7//1 4//1
f 2//1 8//1 3//1
f 8//1 7//1 3//1
f 2//1 1//1 8//1
f 14//2 12//2 13//2
f 15//2 12//2 14//2
f 15//2 11//2 12//2
f 16//2 10//2 11//2
f 15//2 16//2 11//2
f 9//2 10//2 16//2
s 1
f 20//3 19//3 17//4
f 22//3 21//3 19//3
f 24//3 23//3 21//3
f 26//5 25//5 23//3
f 28//6 27//6 25//5
f 28//6 30//4 29//4
f 32//4 31//4 29//4
f 18//4 17//4 31//4
f 18//4 20//3 17//4
f 20//3 22//3 19//3
f 22//3 24//3 21//3
f 24//3 26//5 23//3
f 26//5 28//6 25//5
f 27//6 28//6 29//4
f 30//4 32//4 29//4
f 32//4 18//4 31//4
