# Blender v2.72 (sub 0) OBJ File: ''
# www.blender.org
o Text
v -1.970711 0.322161 0.859496
v -2.700986 0.322161 0.859496
v -4.785389 5.701977 0.859497
v -4.014748 5.701977 0.859497
v -2.616582 1.793720 0.859496
v -2.588830 1.715841 0.859496
v -2.561842 1.638777 0.859496
v -2.535619 1.562528 0.859496
v -2.510160 1.487095 0.859496
v -2.485466 1.412477 0.859496
v -2.461536 1.338675 0.859496
v -2.438371 1.265688 0.859496
v -2.415971 1.193517 0.859496
v -2.394335 1.122161 0.859496
v -2.373463 1.051621 0.859496
v -2.353356 0.981896 0.859496
v -2.334013 0.912987 0.859496
v -2.312938 0.986381 0.859496
v -2.291302 1.059776 0.859496
v -2.269105 1.133170 0.859496
v -2.246348 1.206565 0.859496
v -2.223030 1.279959 0.859496
v -2.199151 1.353354 0.859496
v -2.174712 1.426748 0.859496
v -2.149712 1.500143 0.859496
v -2.124151 1.573537 0.859496
v -2.098030 1.646932 0.859496
v -2.071348 1.720326 0.859496
v -2.044105 1.793720 0.859496
v -0.590894 5.701977 0.859497
v 0.135711 5.701977 0.859497
v -1.970711 0.322161 -0.140504
v -2.700986 0.322161 -0.140504
v -4.785389 5.701977 -0.140503
v -4.014748 5.701977 -0.140503
v -2.616582 1.793720 -0.140504
v -2.588830 1.715841 -0.140504
v -2.561842 1.638777 -0.140504
v -2.535619 1.562528 -0.140504
v -2.510160 1.487095 -0.140504
v -2.485466 1.412477 -0.140504
v -2.461536 1.338675 -0.140504
v -2.438371 1.265688 -0.140504
v -2.415971 1.193517 -0.140504
v -2.394335 1.122161 -0.140504
v -2.373463 1.051621 -0.140504
v -2.353356 0.981896 -0.140504
v -2.334013 0.912987 -0.140504
v -2.312938 0.986381 -0.140504
v -2.291302 1.059776 -0.140504
v -2.269105 1.133170 -0.140504
v -2.246348 1.206565 -0.140504
v -2.223030 1.279959 -0.140504
v -2.199151 1.353354 -0.140504
v -2.174712 1.426748 -0.140504
v -2.149712 1.500143 -0.140504
v -2.124151 1.573537 -0.140504
v -2.098030 1.646932 -0.140504
v -2.071348 1.720326 -0.140504
v -2.044105 1.793720 -0.140504
v -0.590894 5.701977 -0.140503
v 0.135711 5.701977 -0.140503
v -1.970711 0.322161 -0.140504
v -1.970711 0.322161 0.859496
v -2.700986 0.322161 -0.140504
v -2.700986 0.322161 0.859496
v -4.785389 5.701977 -0.140503
v -4.785389 5.701977 0.859497
v -4.014748 5.701977 -0.140503
v -4.014748 5.701977 0.859497
v -2.616582 1.793720 -0.140504
v -2.616582 1.793720 0.859496
v -2.588830 1.715841 -0.140504
v -2.588830 1.715841 0.859496
v -2.561842 1.638777 -0.140504
v -2.561842 1.638777 0.859496
v -2.535619 1.562528 -0.140504
v -2.535619 1.562528 0.859496
v -2.510160 1.487095 -0.140504
v -2.510160 1.487095 0.859496
v -2.485466 1.412477 -0.140504
v -2.485466 1.412477 0.859496
v -2.461536 1.338675 -0.140504
v -2.461536 1.338675 0.859496
v -2.438371 1.265688 -0.140504
v -2.438371 1.265688 0.859496
v -2.415971 1.193517 -0.140504
v -2.415971 1.193517 0.859496
v -2.394335 1.122161 -0.140504
v -2.394335 1.122161 0.859496
v -2.373463 1.051621 -0.140504
v -2.373463 1.051621 0.859496
v -2.353356 0.981896 -0.140504
v -2.353356 0.981896 0.859496
v -2.334013 0.912987 -0.140504
v -2.334013 0.912987 0.859496
v -2.312938 0.986381 -0.140504
v -2.312938 0.986381 0.859496
v -2.291302 1.059776 -0.140504
v -2.291302 1.059776 0.859496
v -2.269105 1.133170 -0.140504
v -2.269105 1.133170 0.859496
v -2.246348 1.206565 -0.140504
v -2.246348 1.206565 0.859496
v -2.223030 1.279959 -0.140504
v -2.223030 1.279959 0.859496
v -2.199151 1.353354 -0.140504
v -2.199151 1.353354 0.859496
v -2.174712 1.426748 -0.140504
v -2.174712 1.426748 0.859496
v -2.149712 1.500143 -0.140504
v -2.149712 1.500143 0.859496
v -2.124151 1.573537 -0.140504
v -2.124151 1.573537 0.859496
v -2.098030 1.646932 -0.140504
v -2.098030 1.646932 0.859496
v -2.071348 1.720326 -0.140504
v -2.071348 1.720326 0.859496
v -2.044105 1.793720 -0.140504
v -2.044105 1.793720 0.859496
v -0.590894 5.701977 -0.140503
v -0.590894 5.701977 0.859497
v 0.135711 5.701977 -0.140503
v 0.135711 5.701977 0.859497
vn 0.000000 -0.000000 1.000000
vn 0.000000 0.000000 -1.000000
vn -0.565100 -0.825000 -0.000000
vn 0.563700 -0.826000 -0.000000
vn -0.825000 0.565100 0.000000
vn 0.575800 0.817600 0.000000
vn 0.941800 0.336300 0.000000
vn 0.942900 0.333100 0.000000
vn 0.944700 0.327900 0.000000
vn 0.946600 0.322500 0.000000
vn 0.948400 0.317000 0.000000
vn 0.950300 0.311300 0.000000
vn 0.952200 0.305500 0.000000
vn 0.954100 0.299500 0.000000
vn 0.956000 0.293300 0.000000
vn 0.957900 0.286900 0.000000
vn 0.959900 0.280400 0.000000
vn 0.961800 0.273700 0.000000
vn 0.003000 1.000000 0.000000
vn -0.960200 0.279400 0.000000
vn -0.958200 0.286100 0.000000
vn -0.956200 0.292800 0.000000
vn -0.954100 0.299500 0.000000
vn -0.952000 0.306100 0.000000
vn -0.949900 0.312700 0.000000
vn -0.947700 0.319200 0.000000
vn -0.945500 0.325700 0.000000
vn -0.943200 0.332100 0.000000
vn -0.941000 0.338500 0.000000
vn -0.938700 0.344800 0.000000
vn -0.937400 0.348300 0.000000
vn -0.570700 0.821100 0.000000
vn 0.826000 0.563700 0.000000
s off
f 2//1 4//1 3//1
f 2//1 5//1 4//1
f 29//1 31//1 30//1
f 29//1 1//1 31//1
f 2//1 6//1 5//1
f 28//1 1//1 29//1
f 27//1 1//1 28//1
f 2//1 7//1 6//1
f 26//1 1//1 27//1
f 2//1 8//1 7//1
f 25//1 1//1 26//1
f 2//1 9//1 8//1
f 24//1 1//1 25//1
f 2//1 10//1 9//1
f 23//1 1//1 24//1
f 2//1 11//1 10//1
f 22//1 1//1 23//1
f 2//1 12//1 11//1
f 21//1 1//1 22//1
f 2//1 13//1 12//1
f 20//1 1//1 21//1
f 2//1 14//1 13//1
f 19//1 1//1 20//1
f 2//1 15//1 14//1
f 18//1 1//1 19//1
f 2//1 16//1 15//1
f 17//1 1//1 18//1
f 2//1 17//1 16//1
f 2//1 1//1 17//1
f 35//2 33//2 34//2
f 36//2 33//2 35//2
f 62//2 60//2 61//2
f 32//2 60//2 62//2
f 37//2 33//2 36//2
f 32//2 59//2 60//2
f 32//2 58//2 59//2
f 38//2 33//2 37//2
f 32//2 57//2 58//2
f 39//2 33//2 38//2
f 32//2 56//2 57//2
f 40//2 33//2 39//2
f 32//2 55//2 56//2
f 41//2 33//2 40//2
f 32//2 54//2 55//2
f 42//2 33//2 41//2
f 32//2 53//2 54//2
f 43//2 33//2 42//2
f 32//2 52//2 53//2
f 44//2 33//2 43//2
f 32//2 51//2 52//2
f 45//2 33//2 44//2
f 32//2 50//2 51//2
f 46//2 33//2 45//2
f 32//2 49//2 50//2
f 47//2 33//2 46//2
f 32//2 48//2 49//2
f 48//2 33//2 47//2
f 32//2 33//2 48//2
s 1
f 66//3 65//3 63//4
f 68//5 67//5 65//3
f 70//6 69//6 67//5
f 72//7 71//7 69//6
f 74//8 73//8 71//7
f 76//9 75//9 73//8
f 78//10 77//10 75//9
f 80//11 79//11 77//10
f 82//12 81//12 79//11
f 84//13 83//13 81//12
f 86//14 85//14 83//13
f 88//15 87//15 85//14
f 90//16 89//16 87//15
f 92//17 91//17 89//16
f 94//18 93//18 91//17
f 96//19 95//19 93//18
f 98//20 97//20 95//19
f 100//21 99//21 97//20
f 102//22 101//22 99//21
f 104//23 103//23 101//22
f 106//24 105//24 103//23
f 108//25 107//25 105//24
f 110//26 109//26 107//25
f 112//27 111//27 109//26
f 114//28 113//28 111//27
f 116//29 115//29 113//28
f 116//29 118//30 117//30
f 120//31 119//31 117//30
f 122//32 121//32 119//31
f 124//33 123//33 121//32
f 64//4 63//4 123//33
f 64//4 66//3 63//4
f 66//3 68//5 65//3
f 68//5 70//6 67//5
f 70//6 72//7 69//6
f 72//7 74//8 71//7
f 74//8 76//9 73//8
f 76//9 78//10 75//9
f 78//10 80//11 77//10
f 80//11 82//12 79//11
f 82//12 84//13 81//12
f 84//13 86//14 83//13
f 86//14 88//15 85//14
f 88//15 90//16 87//15
f 90//16 92//17 89//16
f 92//17 94//18 91//17
f 94//18 96//19 93//18
f 96//19 98//20 95//19
f 98//20 100//21 97//20
f 100//21 102//22 99//21
f 102//22 104//23 101//22
f 104//23 106//24 103//23
f 106//24 108//25 105//24
f 108//25 110//26 107//25
f 110//26 112//27 109//26
f 112//27 114//28 111//27
f 114//28 116//29 113//28
f 115//29 116//29 117//30
f 118//30 120//31 117//30
f 120//31 122//32 119//31
f 122//32 124//33 121//32
f 124//33 64//4 123//33
