# Blender v2.72 (sub 0) OBJ File: ''
# www.blender.org
o Text
v -3.930344 0.322161 0.859496
v -4.785389 0.322161 0.859496
v -2.704656 3.125830 0.859496
v -4.539518 5.701977 0.859497
v -3.691812 5.701977 0.859497
v -2.715665 4.322161 0.859496
v -2.666124 4.251977 0.859496
v -2.619029 4.184546 0.859496
v -2.574380 4.119867 0.859496
v -2.532179 4.057940 0.859496
v -2.492423 3.998766 0.859496
v -2.455114 3.942344 0.859496
v -2.420252 3.888674 0.859496
v -2.387836 3.837757 0.859496
v -2.357867 3.789592 0.859496
v -2.330344 3.744179 0.859496
v -2.305267 3.701519 0.859496
v -2.282637 3.661610 0.859496
v -2.252209 3.710718 0.859496
v -2.220864 3.760183 0.859496
v -2.188601 3.810005 0.859496
v -2.155420 3.860183 0.859496
v -2.121322 3.910719 0.859496
v -2.086307 3.961611 0.859496
v -2.050374 4.012859 0.859496
v -2.013524 4.064465 0.859496
v -1.975756 4.116427 0.859496
v -1.937071 4.168746 0.859496
v -1.897469 4.221422 0.859496
v -1.856949 4.274455 0.859496
v -0.774381 5.701977 0.859497
v -0.000069 5.701977 0.859497
v -1.889977 3.166198 0.859496
v 0.146720 0.322161 0.859496
v -0.734014 0.322161 0.859496
v -2.088142 2.241427 0.859496
v -2.107153 2.269154 0.859496
v -2.126266 2.297288 0.859496
v -2.145481 2.325831 0.859496
v -2.164798 2.354781 0.859496
v -2.184217 2.384139 0.859496
v -2.203738 2.413904 0.859496
v -2.223361 2.444077 0.859496
v -2.243086 2.474658 0.859496
v -2.262913 2.505647 0.859496
v -2.282841 2.537044 0.859496
v -2.302872 2.568848 0.859496
v -2.323004 2.601060 0.859496
v -2.352260 2.553405 0.859496
v -2.380089 2.508297 0.859496
v -2.406490 2.465739 0.859496
v -2.431465 2.425729 0.859496
v -2.455012 2.388267 0.859496
v -2.477133 2.353354 0.859496
v -2.497826 2.320989 0.859496
v -2.517092 2.291172 0.859496
v -2.534931 2.263904 0.859496
v -2.551343 2.239184 0.859496
v -2.566327 2.217013 0.859496
v -2.579885 2.197390 0.859496
v -3.930344 0.322161 -0.140504
v -4.785389 0.322161 -0.140504
v -2.704656 3.125830 -0.140504
v -4.539518 5.701977 -0.140503
v -3.691812 5.701977 -0.140503
v -2.715665 4.322161 -0.140504
v -2.666124 4.251977 -0.140504
v -2.619029 4.184546 -0.140504
v -2.574380 4.119867 -0.140504
v -2.532179 4.057940 -0.140504
v -2.492423 3.998766 -0.140504
v -2.455114 3.942344 -0.140504
v -2.420252 3.888674 -0.140504
v -2.387836 3.837757 -0.140504
v -2.357867 3.789592 -0.140504
v -2.330344 3.744179 -0.140504
v -2.305267 3.701519 -0.140504
v -2.282637 3.661610 -0.140504
v -2.252209 3.710718 -0.140504
v -2.220864 3.760183 -0.140504
v -2.188601 3.810005 -0.140504
v -2.155420 3.860183 -0.140504
v -2.121322 3.910719 -0.140504
v -2.086307 3.961611 -0.140504
v -2.050374 4.012859 -0.140504
v -2.013524 4.064465 -0.140504
v -1.975756 4.116427 -0.140504
v -1.937071 4.168746 -0.140504
v -1.897469 4.221422 -0.140504
v -1.856949 4.274455 -0.140504
v -0.774381 5.701977 -0.140503
v -0.000069 5.701977 -0.140503
v -1.889977 3.166198 -0.140504
v 0.146720 0.322161 -0.140504
v -0.734014 0.322161 -0.140504
v -2.088142 2.241427 -0.140504
v -2.107153 2.269154 -0.140504
v -2.126266 2.297288 -0.140504
v -2.145481 2.325831 -0.140504
v -2.164798 2.354781 -0.140504
v -2.184217 2.384139 -0.140504
v -2.203738 2.413904 -0.140504
v -2.223361 2.444077 -0.140504
v -2.243086 2.474658 -0.140504
v -2.262913 2.505647 -0.140504
v -2.282841 2.537044 -0.140504
v -2.302872 2.568848 -0.140504
v -2.323004 2.601060 -0.140504
v -2.352260 2.553405 -0.140504
v -2.380089 2.508297 -0.140504
v -2.406490 2.465739 -0.140504
v -2.431465 2.425729 -0.140504
v -2.455012 2.388267 -0.140504
v -2.477133 2.353354 -0.140504
v -2.497826 2.320989 -0.140504
v -2.517092 2.291172 -0.140504
v -2.534931 2.263904 -0.140504
v -2.551343 2.239184 -0.140504
v -2.566327 2.217013 -0.140504
v -2.579885 2.197390 -0.140504
v -3.930344 0.322161 -0.140504
v -3.930344 0.322161 0.859496
v -4.785389 0.322161 -0.140504
v -4.785389 0.322161 0.859496
v -2.704656 3.125830 -0.140504
v -2.704656 3.125830 0.859496
v -4.539518 5.701977 -0.140503
v -4.539518 5.701977 0.859497
v -3.691812 5.701977 -0.140503
v -3.691812 5.701977 0.859497
v -2.715665 4.322161 -0.140504
v -2.715665 4.322161 0.859496
v -2.666124 4.251977 -0.140504
v -2.666124 4.251977 0.859496
v -2.619029 4.184546 -0.140504
v -2.619029 4.184546 0.859496
v -2.574380 4.119867 -0.140504
v -2.574380 4.119867 0.859496
v -2.532179 4.057940 -0.140504
v -2.532179 4.057940 0.859496
v -2.492423 3.998766 -0.140504
v -2.492423 3.998766 0.859496
v -2.455114 3.942344 -0.140504
v -2.455114 3.942344 0.859496
v -2.420252 3.888674 -0.140504
v -2.420252 3.888674 0.859496
v -2.387836 3.837757 -0.140504
v -2.387836 3.837757 0.859496
v -2.357867 3.789592 -0.140504
v -2.357867 3.789592 0.859496
v -2.330344 3.744179 -0.140504
v -2.330344 3.744179 0.859496
v -2.305267 3.701519 -0.140504
v -2.305267 3.701519 0.859496
v -2.282637 3.661610 -0.140504
v -2.282637 3.661610 0.859496
v -2.252209 3.710718 -0.140504
v -2.252209 3.710718 0.859496
v -2.220864 3.760183 -0.140504
v -2.220864 3.760183 0.859496
v -2.188601 3.810005 -0.140504
v -2.188601 3.810005 0.859496
v -2.155420 3.860183 -0.140504
v -2.155420 3.860183 0.859496
v -2.121322 3.910719 -0.140504
v -2.121322 3.910719 0.859496
v -2.086307 3.961611 -0.140504
v -2.086307 3.961611 0.859496
v -2.050374 4.012859 -0.140504
v -2.050374 4.012859 0.859496
v -2.013524 4.064465 -0.140504
v -2.013524 4.064465 0.859496
v -1.975756 4.116427 -0.140504
v -1.975756 4.116427 0.859496
v -1.937071 4.168746 -0.140504
v -1.937071 4.168746 0.859496
v -1.897469 4.221422 -0.140504
v -1.897469 4.221422 0.859496
v -1.856949 4.274455 -0.140504
v -1.856949 4.274455 0.859496
v -0.774381 5.701977 -0.140503
v -0.774381 5.701977 0.859497
v -0.000069 5.701977 -0.140503
v -0.000069 5.701977 0.859497
v -1.889977 3.166198 -0.140504
v -1.889977 3.166198 0.859496
v 0.146720 0.322161 -0.140504
v 0.146720 0.322161 0.859496
v -0.734014 0.322161 -0.140504
v -0.734014 0.322161 0.859496
v -2.088142 2.241427 -0.140504
v -2.088142 2.241427 0.859496
v -2.107153 2.269154 -0.140504
v -2.107153 2.269154 0.859496
v -2.126266 2.297288 -0.140504
v -2.126266 2.297288 0.859496
v -2.145481 2.325831 -0.140504
v -2.145481 2.325831 0.859496
v -2.164798 2.354781 -0.140504
v -2.164798 2.354781 0.859496
v -2.184217 2.384139 -0.140504
v -2.184217 2.384139 0.859496
v -2.203738 2.413904 -0.140504
v -2.203738 2.413904 0.859496
v -2.223361 2.444077 -0.140504
v -2.223361 2.444077 0.859496
v -2.243086 2.474658 -0.140504
v -2.243086 2.474658 0.859496
v -2.262913 2.505647 -0.140504
v -2.262913 2.505647 0.859496
v -2.282841 2.537044 -0.140504
v -2.282841 2.537044 0.859496
v -2.302872 2.568848 -0.140504
v -2.302872 2.568848 0.859496
v -2.323004 2.601060 -0.140504
v -2.323004 2.601060 0.859496
v -2.352260 2.553405 -0.140504
v -2.352260 2.553405 0.859496
v -2.380089 2.508297 -0.140504
v -2.380089 2.508297 0.859496
v -2.406490 2.465739 -0.140504
v -2.406490 2.465739 0.859496
v -2.431465 2.425729 -0.140504
v -2.431465 2.425729 0.859496
v -2.455012 2.388267 -0.140504
v -2.455012 2.388267 0.859496
v -2.477133 2.353354 -0.140504
v -2.477133 2.353354 0.859496
v -2.497826 2.320989 -0.140504
v -2.497826 2.320989 0.859496
v -2.517092 2.291172 -0.140504
v -2.517092 2.291172 0.859496
v -2.534931 2.263904 -0.140504
v -2.534931 2.263904 0.859496
v -2.551343 2.239184 -0.140504
v -2.551343 2.239184 0.859496
v -2.566327 2.217013 -0.140504
v -2.566327 2.217013 0.859496
v -2.579885 2.197390 -0.140504
v -2.579885 2.197390 0.859496
vn 0.000000 -0.000000 1.000000
vn 0.000000 0.000000 -1.000000
vn -0.893300 -0.449500 -0.000000
vn 0.455900 -0.890100 -0.000000
vn -1.000000 0.009800 0.000000
vn -0.888900 0.458200 0.000000
vn 0.459600 0.888100 0.000000
vn 0.816700 0.577100 0.000000
vn 0.818400 0.574600 0.000000
vn 0.821400 0.570300 0.000000
vn 0.824700 0.565600 0.000000
vn 0.828200 0.560400 0.000000
vn 0.832100 0.554600 0.000000
vn 0.836400 0.548200 0.000000
vn 0.841100 0.540900 0.000000
vn 0.846300 0.532700 0.000000
vn 0.852100 0.523300 0.000000
vn 0.858700 0.512500 0.000000
vn 0.866000 0.500000 0.000000
vn 0.019400 0.999800 0.000000
vn -0.847400 0.531000 0.000000
vn -0.842000 0.539400 0.000000
vn -0.836800 0.547600 0.000000
vn -0.831500 0.555500 0.000000
vn -0.826400 0.563100 0.000000
vn -0.821300 0.570500 0.000000
vn -0.816300 0.577600 0.000000
vn -0.811400 0.584500 0.000000
vn -0.806500 0.591200 0.000000
vn -0.801700 0.597700 0.000000
vn -0.797000 0.604000 0.000000
vn -0.795700 0.605700 0.000000
vn -0.444800 0.895600 0.000000
vn 0.893800 0.448600 0.000000
vn 1.000000 -0.009500 0.000000
vn 0.889400 -0.457000 -0.000000
vn -0.460200 -0.887800 -0.000000
vn -0.820900 -0.571000 0.000000
vn -0.826000 -0.563700 0.000000
vn -0.828400 -0.560200 0.000000
vn -0.830700 -0.556700 0.000000
vn -0.832900 -0.553400 0.000000
vn -0.835100 -0.550000 0.000000
vn -0.837300 -0.546800 0.000000
vn -0.839300 -0.543600 0.000000
vn -0.841400 -0.540500 0.000000
vn -0.843300 -0.537400 0.000000
vn -0.845200 -0.534400 0.000000
vn -0.847100 -0.531500 0.000000
vn 0.004000 -1.000000 0.000000
vn 0.851600 -0.524100 0.000000
vn 0.850400 -0.526100 0.000000
vn 0.849000 -0.528300 0.000000
vn 0.847500 -0.530800 0.000000
vn 0.845700 -0.533700 0.000000
vn 0.843600 -0.536900 0.000000
vn 0.841200 -0.540700 0.000000
vn 0.838400 -0.545100 0.000000
vn 0.835000 -0.550300 0.000000
vn 0.830800 -0.556500 0.000000
vn 0.825600 -0.564200 0.000000
vn 0.817100 -0.576400 0.000000
s off
f 3//1 5//1 4//1
f 3//1 6//1 5//1
f 30//1 32//1 31//1
f 30//1 33//1 32//1
f 3//1 7//1 6//1
f 29//1 33//1 30//1
f 3//1 8//1 7//1
f 28//1 33//1 29//1
f 3//1 9//1 8//1
f 27//1 33//1 28//1
f 3//1 10//1 9//1
f 26//1 33//1 27//1
f 25//1 33//1 26//1
f 3//1 11//1 10//1
f 24//1 33//1 25//1
f 3//1 12//1 11//1
f 23//1 33//1 24//1
f 3//1 13//1 12//1
f 22//1 33//1 23//1
f 3//1 14//1 13//1
f 21//1 33//1 22//1
f 3//1 15//1 14//1
f 20//1 33//1 21//1
f 3//1 16//1 15//1
f 19//1 33//1 20//1
f 3//1 17//1 16//1
f 18//1 33//1 19//1
f 3//1 18//1 17//1
f 3//1 33//1 18//1
f 3//1 34//1 33//1
f 2//1 48//1 3//1
f 48//1 34//1 3//1
f 2//1 49//1 48//1
f 47//1 34//1 48//1
f 46//1 34//1 47//1
f 2//1 50//1 49//1
f 45//1 34//1 46//1
f 2//1 51//1 50//1
f 44//1 34//1 45//1
f 43//1 34//1 44//1
f 2//1 52//1 51//1
f 42//1 34//1 43//1
f 2//1 53//1 52//1
f 41//1 34//1 42//1
f 2//1 54//1 53//1
f 40//1 34//1 41//1
f 39//1 34//1 40//1
f 2//1 55//1 54//1
f 38//1 34//1 39//1
f 2//1 56//1 55//1
f 37//1 34//1 38//1
f 2//1 57//1 56//1
f 36//1 34//1 37//1
f 2//1 58//1 57//1
f 35//1 34//1 36//1
f 2//1 59//1 58//1
f 2//1 60//1 59//1
f 2//1 1//1 60//1
f 65//2 63//2 64//2
f 66//2 63//2 65//2
f 92//2 90//2 91//2
f 93//2 90//2 92//2
f 67//2 63//2 66//2
f 93//2 89//2 90//2
f 68//2 63//2 67//2
f 93//2 88//2 89//2
f 69//2 63//2 68//2
f 93//2 87//2 88//2
f 70//2 63//2 69//2
f 93//2 86//2 87//2
f 93//2 85//2 86//2
f 71//2 63//2 70//2
f 93//2 84//2 85//2
f 72//2 63//2 71//2
f 93//2 83//2 84//2
f 73//2 63//2 72//2
f 93//2 82//2 83//2
f 74//2 63//2 73//2
f 93//2 81//2 82//2
f 75//2 63//2 74//2
f 93//2 80//2 81//2
f 76//2 63//2 75//2
f 93//2 79//2 80//2
f 77//2 63//2 76//2
f 93//2 78//2 79//2
f 78//2 63//2 77//2
f 93//2 63//2 78//2
f 94//2 63//2 93//2
f 108//2 62//2 63//2
f 94//2 108//2 63//2
f 109//2 62//2 108//2
f 94//2 107//2 108//2
f 94//2 106//2 107//2
f 110//2 62//2 109//2
f 94//2 105//2 106//2
f 111//2 62//2 110//2
f 94//2 104//2 105//2
f 94//2 103//2 104//2
f 112//2 62//2 111//2
f 94//2 102//2 103//2
f 113//2 62//2 112//2
f 94//2 101//2 102//2
f 114//2 62//2 113//2
f 94//2 100//2 101//2
f 94//2 99//2 100//2
f 115//2 62//2 114//2
f 94//2 98//2 99//2
f 116//2 62//2 115//2
f 94//2 97//2 98//2
f 117//2 62//2 116//2
f 94//2 96//2 97//2
f 118//2 62//2 117//2
f 94//2 95//2 96//2
f 119//2 62//2 118//2
f 120//2 62//2 119//2
f 61//2 62//2 120//2
s 1
f 124//3 123//3 121//4
f 124//3 126//5 125//5
f 128//6 127//6 125//5
f 130//7 129//7 127//6
f 132//8 131//8 129//7
f 134//9 133//9 131//8
f 136//10 135//10 133//9
f 138//11 137//11 135//10
f 140//12 139//12 137//11
f 142//13 141//13 139//12
f 144//14 143//14 141//13
f 146//15 145//15 143//14
f 148//16 147//16 145//15
f 150//17 149//17 147//16
f 152//18 151//18 149//17
f 152//18 154//19 153//19
f 156//20 155//20 153//19
f 158//21 157//21 155//20
f 160//22 159//22 157//21
f 162//23 161//23 159//22
f 164//24 163//24 161//23
f 166//25 165//25 163//24
f 168//26 167//26 165//25
f 170//27 169//27 167//26
f 172//28 171//28 169//27
f 174//29 173//29 171//28
f 176//30 175//30 173//29
f 178//31 177//31 175//30
f 180//32 179//32 177//31
f 182//33 181//33 179//32
f 184//34 183//34 181//33
f 186//35 185//35 183//34
f 188//36 187//36 185//35
f 190//37 189//37 187//36
f 192//38 191//38 189//37
f 194//39 193//39 191//38
f 196//40 195//40 193//39
f 198//41 197//41 195//40
f 200//42 199//42 197//41
f 202//43 201//43 199//42
f 204//44 203//44 201//43
f 206//45 205//45 203//44
f 208//46 207//46 205//45
f 210//47 209//47 207//46
f 212//48 211//48 209//47
f 214//49 213//49 211//48
f 216//50 215//50 213//49
f 218//51 217//51 215//50
f 220//52 219//52 217//51
f 222//53 221//53 219//52
f 224//54 223//54 221//53
f 226//55 225//55 223//54
f 228//56 227//56 225//55
f 230//57 229//57 227//56
f 232//58 231//58 229//57
f 234//59 233//59 231//58
f 236//60 235//60 233//59
f 238//61 237//61 235//60
f 240//62 239//62 237//61
f 240//62 122//4 121//4
f 122//4 124//3 121//4
f 123//3 124//3 125//5
f 126//5 128//6 125//5
f 128//6 130//7 127//6
f 130//7 132//8 129//7
f 132//8 134//9 131//8
f 134//9 136//10 133//9
f 136//10 138//11 135//10
f 138//11 140//12 137//11
f 140//12 142//13 139//12
f 142//13 144//14 141//13
f 144//14 146//15 143//14
f 146//15 148//16 145//15
f 148//16 150//17 147//16
f 150//17 152//18 149//17
f 151//18 152//18 153//19
f 154//19 156//20 153//19
f 156//20 158//21 155//20
f 158//21 160//22 157//21
f 160//22 162//23 159//22
f 162//23 164//24 161//23
f 164//24 166//25 163//24
f 166//25 168//26 165//25
f 168//26 170//27 167//26
f 170//27 172//28 169//27
f 172//28 174//29 171//28
f 174//29 176//30 173//29
f 176//30 178//31 175//30
f 178//31 180//32 177//31
f 180//32 182//33 179//32
f 182//33 184//34 181//33
f 184//34 186//35 183//34
f 186//35 188//36 185//35
f 188//36 190//37 187//36
f 190//37 192//38 189//37
f 192//38 194//39 191//38
f 194//39 196//40 193//39
f 196//40 198//41 195//40
f 198//41 200//42 197//41
f 200//42 202//43 199//42
f 202//43 204//44 201//43
f 204//44 206//45 203//44
f 206//45 208//46 205//45
f 208//46 210//47 207//46
f 210//47 212//48 209//47
f 212//48 214//49 211//48
f 214//49 216//50 213//49
f 216//50 218//51 215//50
f 218//51 220//52 217//51
f 220//52 222//53 219//52
f 222//53 224//54 221//53
f 224//54 226//55 223//54
f 226//55 228//56 225//55
f 228//56 230//57 227//56
f 230//57 232//58 229//57
f 232//58 234//59 231//58
f 234//59 236//60 233//59
f 236//60 238//61 235//60
f 238//61 240//62 237//61
f 239//62 240//62 121//4
