# Blender v2.72 (sub 0) OBJ File: ''
# www.blender.org
o Text
v -2.011078 0.322161 0.859496
v -2.723004 0.322161 0.859496
v -2.723004 2.601060 0.859496
v -4.796399 5.701977 0.859497
v -3.930344 5.701977 0.859497
v -2.869793 4.079959 0.859496
v -2.821144 4.004118 0.859496
v -2.773055 3.928277 0.859496
v -2.725527 3.852436 0.859496
v -2.678560 3.776595 0.859496
v -2.632153 3.700754 0.859496
v -2.586307 3.624913 0.859496
v -2.541022 3.549073 0.859496
v -2.496297 3.473232 0.859496
v -2.452133 3.397391 0.859496
v -2.408530 3.321550 0.859496
v -2.365487 3.245709 0.859496
v -2.323004 3.169867 0.859496
v -2.281924 3.240943 0.859496
v -2.239416 3.313496 0.859496
v -2.195481 3.387528 0.859496
v -2.150120 3.463038 0.859496
v -2.103331 3.540025 0.859496
v -2.055115 3.618491 0.859496
v -2.005471 3.698435 0.859496
v -1.954401 3.779857 0.859496
v -1.901904 3.862757 0.859496
v -1.847979 3.947136 0.859496
v -1.792627 4.032992 0.859496
v -1.735848 4.120326 0.859496
v -0.693646 5.701977 0.859497
v 0.135711 5.701977 0.859497
v -2.011078 2.601060 0.859496
v -2.011078 0.322161 -0.140504
v -2.723004 0.322161 -0.140504
v -2.723004 2.601060 -0.140504
v -4.796399 5.701977 -0.140503
v -3.930344 5.701977 -0.140503
v -2.869793 4.079959 -0.140504
v -2.821144 4.004118 -0.140504
v -2.773055 3.928277 -0.140504
v -2.725527 3.852436 -0.140504
v -2.678560 3.776595 -0.140504
v -2.632153 3.700754 -0.140504
v -2.586307 3.624913 -0.140504
v -2.541022 3.549073 -0.140504
v -2.496297 3.473232 -0.140504
v -2.452133 3.397391 -0.140504
v -2.408530 3.321550 -0.140504
v -2.365487 3.245709 -0.140504
v -2.323004 3.169867 -0.140504
v -2.281924 3.240943 -0.140504
v -2.239416 3.313496 -0.140504
v -2.195481 3.387528 -0.140504
v -2.150120 3.463038 -0.140504
v -2.103331 3.540025 -0.140504
v -2.055115 3.618491 -0.140504
v -2.005471 3.698435 -0.140504
v -1.954401 3.779857 -0.140504
v -1.901904 3.862757 -0.140504
v -1.847979 3.947136 -0.140504
v -1.792627 4.032992 -0.140504
v -1.735848 4.120326 -0.140504
v -0.693646 5.701977 -0.140503
v 0.135711 5.701977 -0.140503
v -2.011078 2.601060 -0.140504
v -2.011078 0.322161 -0.140504
v -2.011078 0.322161 0.859496
v -2.723004 0.322161 -0.140504
v -2.723004 0.322161 0.859496
v -2.723004 2.601060 -0.140504
v -2.723004 2.601060 0.859496
v -4.796399 5.701977 -0.140503
v -4.796399 5.701977 0.859497
v -3.930344 5.701977 -0.140503
v -3.930344 5.701977 0.859497
v -2.869793 4.079959 -0.140504
v -2.869793 4.079959 0.859496
v -2.821144 4.004118 -0.140504
v -2.821144 4.004118 0.859496
v -2.773055 3.928277 -0.140504
v -2.773055 3.928277 0.859496
v -2.725527 3.852436 -0.140504
v -2.725527 3.852436 0.859496
v -2.678560 3.776595 -0.140504
v -2.678560 3.776595 0.859496
v -2.632153 3.700754 -0.140504
v -2.632153 3.700754 0.859496
v -2.586307 3.624913 -0.140504
v -2.586307 3.624913 0.859496
v -2.541022 3.549073 -0.140504
v -2.541022 3.549073 0.859496
v -2.496297 3.473232 -0.140504
v -2.496297 3.473232 0.859496
v -2.452133 3.397391 -0.140504
v -2.452133 3.397391 0.859496
v -2.408530 3.321550 -0.140504
v -2.408530 3.321550 0.859496
v -2.365487 3.245709 -0.140504
v -2.365487 3.245709 0.859496
v -2.323004 3.169867 -0.140504
v -2.323004 3.169867 0.859496
v -2.281924 3.240943 -0.140504
v -2.281924 3.240943 0.859496
v -2.239416 3.313496 -0.140504
v -2.239416 3.313496 0.859496
v -2.195481 3.387528 -0.140504
v -2.195481 3.387528 0.859496
v -2.150120 3.463038 -0.140504
v -2.150120 3.463038 0.859496
v -2.103331 3.540025 -0.140504
v -2.103331 3.540025 0.859496
v -2.055115 3.618491 -0.140504
v -2.055115 3.618491 0.859496
v -2.005471 3.698435 -0.140504
v -2.005471 3.698435 0.859496
v -1.954401 3.779857 -0.140504
v -1.954401 3.779857 0.859496
v -1.901904 3.862757 -0.140504
v -1.901904 3.862757 0.859496
v -1.847979 3.947136 -0.140504
v -1.847979 3.947136 0.859496
v -1.792627 4.032992 -0.140504
v -1.792627 4.032992 0.859496
v -1.735848 4.120326 -0.140504
v -1.735848 4.120326 0.859496
v -0.693646 5.701977 -0.140503
v -0.693646 5.701977 0.859497
v 0.135711 5.701977 -0.140503
v 0.135711 5.701977 0.859497
v -2.011078 2.601060 -0.140504
v -2.011078 2.601060 0.859496
vn 0.000000 -0.000000 1.000000
vn 0.000000 0.000000 -1.000000
vn -0.707100 -0.707100 -0.000000
vn 0.707100 -0.707100 -0.000000
vn -0.956900 -0.290400 0.000000
vn -0.882000 0.471300 0.000000
vn 0.475800 0.879600 0.000000
vn 0.839300 0.543600 0.000000
vn 0.843100 0.537700 0.000000
vn 0.846000 0.533300 0.000000
vn 0.848800 0.528800 0.000000
vn 0.851600 0.524200 0.000000
vn 0.854400 0.519600 0.000000
vn 0.857200 0.515000 0.000000
vn 0.860000 0.510300 0.000000
vn 0.862800 0.505600 0.000000
vn 0.865500 0.500800 0.000000
vn 0.868300 0.496000 0.000000
vn 0.871100 0.491100 0.000000
vn 0.006700 1.000000 0.000000
vn -0.864300 0.503000 0.000000
vn -0.861400 0.507900 0.000000
vn -0.858600 0.512700 0.000000
vn -0.855900 0.517200 0.000000
vn -0.853300 0.521400 0.000000
vn -0.853300 0.521500 0.000000
vn -0.850800 0.525500 0.000000
vn -0.848300 0.529400 0.000000
vn -0.846000 0.533200 0.000000
vn -0.843700 0.536800 0.000000
vn -0.841500 0.540200 0.000000
vn -0.839400 0.543500 0.000000
vn -0.836700 0.547600 0.000000
vn -0.474200 0.880400 0.000000
vn 0.885800 0.464100 0.000000
vn 0.954500 -0.298200 0.000000
s off
f 3//1 5//1 4//1
f 3//1 6//1 5//1
f 30//1 32//1 31//1
f 30//1 33//1 32//1
f 29//1 33//1 30//1
f 3//1 7//1 6//1
f 28//1 33//1 29//1
f 3//1 8//1 7//1
f 27//1 33//1 28//1
f 3//1 9//1 8//1
f 26//1 33//1 27//1
f 3//1 10//1 9//1
f 25//1 33//1 26//1
f 3//1 11//1 10//1
f 3//1 12//1 11//1
f 24//1 33//1 25//1
f 3//1 13//1 12//1
f 23//1 33//1 24//1
f 3//1 14//1 13//1
f 22//1 33//1 23//1
f 3//1 15//1 14//1
f 21//1 33//1 22//1
f 3//1 16//1 15//1
f 20//1 33//1 21//1
f 3//1 17//1 16//1
f 19//1 33//1 20//1
f 3//1 18//1 17//1
f 18//1 33//1 19//1
f 3//1 33//1 18//1
f 2//1 33//1 3//1
f 2//1 1//1 33//1
f 38//2 36//2 37//2
f 39//2 36//2 38//2
f 65//2 63//2 64//2
f 66//2 63//2 65//2
f 66//2 62//2 63//2
f 40//2 36//2 39//2
f 66//2 61//2 62//2
f 41//2 36//2 40//2
f 66//2 60//2 61//2
f 42//2 36//2 41//2
f 66//2 59//2 60//2
f 43//2 36//2 42//2
f 66//2 58//2 59//2
f 44//2 36//2 43//2
f 45//2 36//2 44//2
f 66//2 57//2 58//2
f 46//2 36//2 45//2
f 66//2 56//2 57//2
f 47//2 36//2 46//2
f 66//2 55//2 56//2
f 48//2 36//2 47//2
f 66//2 54//2 55//2
f 49//2 36//2 48//2
f 66//2 53//2 54//2
f 50//2 36//2 49//2
f 66//2 52//2 53//2
f 51//2 36//2 50//2
f 66//2 51//2 52//2
f 66//2 36//2 51//2
f 66//2 35//2 36//2
f 34//2 35//2 66//2
s 1
f 70//3 69//3 67//4
f 72//5 71//5 69//3
f 74//6 73//6 71//5
f 76//7 75//7 73//6
f 78//8 77//8 75//7
f 80//9 79//9 77//8
f 82//10 81//10 79//9
f 84//11 83//11 81//10
f 86//12 85//12 83//11
f 88//13 87//13 85//12
f 90//14 89//14 87//13
f 92//15 91//15 89//14
f 94//16 93//16 91//15
f 96//17 95//17 93//16
f 98//18 97//18 95//17
f 100//19 99//19 97//18
f 102//20 101//20 99//19
f 104//21 103//21 101//20
f 106//22 105//22 103//21
f 108//23 107//23 105//22
f 110//24 109//24 107//23
f 112//25 111//26 109//24
f 114//27 113//27 111//26
f 116//28 115//28 113//27
f 118//29 117//29 115//28
f 120//30 119//30 117//29
f 122//31 121//31 119//30
f 124//32 123//32 121//31
f 126//33 125//33 123//32
f 128//34 127//34 125//33
f 130//35 129//35 127//34
f 130//35 132//36 131//36
f 68//4 67//4 131//36
f 68//4 70//3 67//4
f 70//3 72//5 69//3
f 72//5 74//6 71//5
f 74//6 76//7 73//6
f 76//7 78//8 75//7
f 78//8 80//9 77//8
f 80//9 82//10 79//9
f 82//10 84//11 81//10
f 84//11 86//12 83//11
f 86//12 88//13 85//12
f 88//13 90//14 87//13
f 90//14 92//15 89//14
f 92//15 94//16 91//15
f 94//16 96//17 93//16
f 96//17 98//18 95//17
f 98//18 100//19 97//18
f 100//19 102//20 99//19
f 102//20 104//21 101//20
f 104//21 106//22 103//21
f 106//22 108//23 105//22
f 108//23 110//24 107//23
f 110//24 112//25 109//24
f 112//25 114//27 111//26
f 114//27 116//28 113//27
f 116//28 118//29 115//28
f 118//29 120//30 117//29
f 120//30 122//31 119//30
f 122//31 124//32 121//31
f 124//32 126//33 123//32
f 126//33 128//34 125//33
f 128//34 130//35 127//34
f 129//35 130//35 131//36
f 132//36 68//4 131//36
