# Blender v2.72 (sub 0) OBJ File: ''
# www.blender.org
o Text
v -0.414748 0.322161 0.859496
v -4.667958 0.322161 0.859496
v -4.667958 0.982711 0.859496
v -1.911995 4.428583 0.859496
v -1.863269 4.489083 0.859496
v -1.814951 4.548257 0.859496
v -1.767041 4.606106 0.859496
v -1.719538 4.662630 0.859496
v -1.672444 4.717829 0.859496
v -1.625757 4.771702 0.859496
v -1.579477 4.824251 0.859496
v -1.533606 4.875474 0.859496
v -1.488142 4.925372 0.859496
v -1.443086 4.973945 0.859496
v -1.398438 5.021193 0.859496
v -1.354197 5.067115 0.859496
v -4.356032 5.067115 0.859496
v -4.356032 5.701977 0.859497
v -0.502821 5.701977 0.859497
v -0.502821 5.067115 0.859496
v -3.523004 1.335005 0.859496
v -3.849610 0.957023 0.859496
v -0.414748 0.957023 0.859496
v -0.414748 0.322161 -0.140504
v -4.667958 0.322161 -0.140504
v -4.667958 0.982711 -0.140504
v -1.911995 4.428583 -0.140504
v -1.863269 4.489083 -0.140504
v -1.814951 4.548257 -0.140504
v -1.767041 4.606106 -0.140504
v -1.719538 4.662630 -0.140504
v -1.672444 4.717829 -0.140504
v -1.625757 4.771702 -0.140503
v -1.579477 4.824251 -0.140503
v -1.533606 4.875474 -0.140503
v -1.488142 4.925372 -0.140503
v -1.443086 4.973945 -0.140503
v -1.398438 5.021193 -0.140503
v -1.354197 5.067115 -0.140503
v -4.356032 5.067115 -0.140503
v -4.356032 5.701977 -0.140503
v -0.502821 5.701977 -0.140503
v -0.502821 5.067115 -0.140503
v -3.523004 1.335005 -0.140504
v -3.849610 0.957023 -0.140504
v -0.414748 0.957023 -0.140504
v -0.414748 0.322161 -0.140504
v -0.414748 0.322161 0.859496
v -4.667958 0.322161 -0.140504
v -4.667958 0.322161 0.859496
v -4.667958 0.982711 -0.140504
v -4.667958 0.982711 0.859496
v -1.911995 4.428583 -0.140504
v -1.911995 4.428583 0.859496
v -1.863269 4.489083 -0.140504
v -1.863269 4.489083 0.859496
v -1.814951 4.548257 -0.140504
v -1.814951 4.548257 0.859496
v -1.767041 4.606106 -0.140504
v -1.767041 4.606106 0.859496
v -1.719538 4.662630 -0.140504
v -1.719538 4.662630 0.859496
v -1.672444 4.717829 -0.140504
v -1.672444 4.717829 0.859496
v -1.625757 4.771702 -0.140503
v -1.625757 4.771702 0.859496
v -1.579477 4.824251 -0.140503
v -1.579477 4.824251 0.859496
v -1.533606 4.875474 -0.140503
v -1.533606 4.875474 0.859496
v -1.488142 4.925372 -0.140503
v -1.488142 4.925372 0.859496
v -1.443086 4.973945 -0.140503
v -1.443086 4.973945 0.859496
v -1.398438 5.021193 -0.140503
v -1.398438 5.021193 0.859496
v -1.354197 5.067115 -0.140503
v -1.354197 5.067115 0.859496
v -4.356032 5.067115 -0.140503
v -4.356032 5.067115 0.859496
v -4.356032 5.701977 -0.140503
v -4.356032 5.701977 0.859497
v -0.502821 5.701977 -0.140503
v -0.502821 5.701977 0.859497
v -0.502821 5.067115 -0.140503
v -0.502821 5.067115 0.859496
v -3.523004 1.335005 -0.140504
v -3.523004 1.335005 0.859496
v -3.849610 0.957023 -0.140504
v -3.849610 0.957023 0.859496
v -0.414748 0.957023 -0.140504
v -0.414748 0.957023 0.859496
vn 0.000000 -0.000000 1.000000
vn 0.000000 0.000000 -1.000000
vn -0.707100 -0.707100 -0.000000
vn 0.707100 -0.707100 -0.000000
vn -0.943600 0.330900 0.000000
vn -0.779900 0.625900 0.000000
vn -0.776700 0.629900 0.000000
vn -0.772400 0.635200 0.000000
vn -0.767900 0.640600 0.000000
vn -0.763200 0.646200 0.000000
vn -0.758200 0.652000 0.000000
vn -0.753100 0.657900 0.000000
vn -0.747700 0.664000 0.000000
vn -0.742100 0.670300 0.000000
vn -0.736200 0.676800 0.000000
vn -0.730000 0.683500 0.000000
vn -0.723500 0.690300 0.000000
vn -0.920300 -0.391300 0.000000
vn -0.707100 0.707100 0.000000
vn 0.707100 0.707100 0.000000
vn 0.942700 -0.333700 0.000000
vn 0.767100 -0.641500 0.000000
vn 0.909300 0.416000 0.000000
s off
f 17//1 19//1 18//1
f 17//1 20//1 19//1
f 16//1 20//1 17//1
f 15//1 20//1 16//1
f 15//1 21//1 20//1
f 14//1 21//1 15//1
f 13//1 21//1 14//1
f 12//1 21//1 13//1
f 11//1 21//1 12//1
f 10//1 21//1 11//1
f 9//1 21//1 10//1
f 8//1 21//1 9//1
f 7//1 21//1 8//1
f 6//1 21//1 7//1
f 5//1 21//1 6//1
f 4//1 21//1 5//1
f 3//1 21//1 4//1
f 3//1 22//1 21//1
f 2//1 22//1 3//1
f 2//1 23//1 22//1
f 2//1 1//1 23//1
f 42//2 40//2 41//2
f 43//2 40//2 42//2
f 43//1 39//1 40//1
f 43//2 38//2 39//2
f 44//2 38//2 43//2
f 44//2 37//2 38//2
f 44//2 36//2 37//2
f 44//2 35//2 36//2
f 44//2 34//2 35//2
f 44//2 33//2 34//2
f 44//2 32//2 33//2
f 44//2 31//2 32//2
f 44//2 30//2 31//2
f 44//2 29//2 30//2
f 44//2 28//2 29//2
f 44//2 27//2 28//2
f 44//2 26//2 27//2
f 45//2 26//2 44//2
f 45//2 25//2 26//2
f 46//2 25//2 45//2
f 24//2 25//2 46//2
s 1
f 50//3 49//3 47//4
f 52//5 51//5 49//3
f 54//6 53//6 51//5
f 56//7 55//7 53//6
f 58//8 57//8 55//7
f 60//9 59//9 57//8
f 62//10 61//10 59//9
f 64//11 63//11 61//10
f 66//12 65//12 63//11
f 68//13 67//13 65//12
f 70//14 69//14 67//13
f 72//15 71//15 69//14
f 74//16 73//16 71//15
f 76//17 75//17 73//16
f 78//18 77//18 75//17
f 80//3 79//3 77//18
f 82//19 81//19 79//3
f 84//20 83//20 81//19
f 84//20 86//21 85//21
f 88//22 87//22 85//21
f 90//23 89//23 87//22
f 92//20 91//20 89//23
f 48//4 47//4 91//20
f 48//4 50//3 47//4
f 50//3 52//5 49//3
f 52//5 54//6 51//5
f 54//6 56//7 53//6
f 56//7 58//8 55//7
f 58//8 60//9 57//8
f 60//9 62//10 59//9
f 62//10 64//11 61//10
f 64//11 66//12 63//11
f 66//12 68//13 65//12
f 68//13 70//14 67//13
f 70//14 72//15 69//14
f 72//15 74//16 71//15
f 74//16 76//17 73//16
f 76//17 78//18 75//17
f 78//18 80//3 77//18
f 80//3 82//19 79//3
f 82//19 84//20 81//19
f 83//20 84//20 85//21
f 86//21 88//22 85//21
f 88//22 90//23 87//22
f 90//23 92//20 89//23
f 92//20 48//4 91//20
